<svg version="1.1" viewBox="0.0 0.0 839.9422572178478 359.03674540682414" fill="none" stroke="none" stroke-linecap="square" stroke-miterlimit="10" xmlns:xlink="http://www.w3.org/1999/xlink" xmlns="http://www.w3.org/2000/svg"><clipPath id="p.0"><path d="m0 0l839.94226 0l0 359.03674l-839.94226 0l0 -359.03674z" clip-rule="nonzero"/></clipPath><g clip-path="url(#p.0)"><path fill="#000000" fill-opacity="0.0" d="m0 0l839.94226 0l0 359.03674l-839.94226 0z" fill-rule="evenodd"/><path fill="#000000" fill-opacity="0.0" d="m230.77422 78.438705l52.03151 -0.53543854" fill-rule="evenodd"/><path stroke="#424242" stroke-width="1.0" stroke-linejoin="round" stroke-linecap="butt" stroke-dasharray="4.0,3.0" d="m230.77422 78.438705l48.6046 -0.50016785" fill-rule="evenodd"/><path fill="#424242" stroke="#424242" stroke-width="1.0" stroke-linecap="butt" d="m279.3788 77.93854l-1.1129456 1.1360931l3.0780334 -1.1563187l-3.1011963 -1.0927277z" fill-rule="evenodd"/><path fill="#000000" fill-opacity="0.0" d="m275.6072 56.104397l0 0c0 -8.1665 6.62027 -14.786762 14.786774 -14.786762l59.145264 0l0 0c3.921692 0 7.68277 1.557888 10.455811 4.330944c2.7730713 2.773056 4.3309326 6.5341263 4.3309326 10.455818l0 218.78531c0 8.166504 -6.6202393 14.786774 -14.786743 14.786774l-59.145264 0c-8.166504 0 -14.786774 -6.62027 -14.786774 -14.786774z" fill-rule="evenodd"/><path stroke="#999999" stroke-width="1.0" stroke-linejoin="round" stroke-linecap="butt" d="m275.6072 56.104397l0 0c0 -8.1665 6.62027 -14.786762 14.786774 -14.786762l59.145264 0l0 0c3.921692 0 7.68277 1.557888 10.455811 4.330944c2.7730713 2.773056 4.3309326 6.5341263 4.3309326 10.455818l0 218.78531c0 8.166504 -6.6202393 14.786774 -14.786743 14.786774l-59.145264 0c-8.166504 0 -14.786774 -6.62027 -14.786774 -14.786774z" fill-rule="evenodd"/><path fill="#000000" fill-opacity="0.0" d="m273.37732 37.079117l61.338226 0l0 24.09811l-61.338226 0z" fill-rule="evenodd"/><path fill="#999999" d="m282.97107 51.808174l0 -5.734375l2.140625 0q0.65625 0 1.046875 0.1875q0.40625 0.171875 0.625 0.53125q0.234375 0.359375 0.234375 0.75q0 0.375 -0.203125 0.703125q-0.203125 0.3125 -0.609375 0.515625q0.53125 0.15625 0.796875 0.53125q0.28125 0.359375 0.28125 0.859375q0 0.390625 -0.171875 0.75q-0.15625 0.34375 -0.40625 0.53125q-0.25 0.1875 -0.640625 0.28125q-0.375 0.09375 -0.921875 0.09375l-2.171875 0zm0.75 -3.328125l1.234375 0q0.515625 0 0.734375 -0.0625q0.28125 -0.078125 0.421875 -0.28125q0.15625 -0.203125 0.15625 -0.5q0 -0.28125 -0.140625 -0.5q-0.140625 -0.21875 -0.390625 -0.296875q-0.25 -0.078125 -0.875 -0.078125l-1.140625 0l0 1.71875zm0 2.65625l1.421875 0q0.375 0 0.515625 -0.03125q0.265625 -0.046875 0.4375 -0.15625q0.1875 -0.109375 0.296875 -0.3125q0.109375 -0.21875 0.109375 -0.484375q0 -0.328125 -0.171875 -0.5625q-0.15625 -0.234375 -0.453125 -0.328125q-0.28125 -0.09375 -0.828125 -0.09375l-1.328125 0l0 1.96875zm4.5234375 -4.25l0 -0.8125l0.703125 0l0 0.8125l-0.703125 0zm0 4.921875l0 -4.15625l0.703125 0l0 4.15625l-0.703125 0zm1.8398438 0l0 -5.734375l0.75 0l0 5.0625l2.828125 0l0 0.671875l-3.578125 0zm4.2148438 -1.84375l0.71875 -0.0625q0.046875 0.4375 0.234375 0.71875q0.1875 0.265625 0.578125 0.4375q0.390625 0.171875 0.875 0.171875q0.4375 0 0.765625 -0.125q0.328125 -0.140625 0.484375 -0.359375q0.171875 -0.234375 0.171875 -0.5q0 -0.265625 -0.15625 -0.46875q-0.15625 -0.203125 -0.515625 -0.328125q-0.234375 -0.09375 -1.03125 -0.28125q-0.78125 -0.1875 -1.09375 -0.359375q-0.40625 -0.21875 -0.609375 -0.53125q-0.203125 -0.328125 -0.203125 -0.71875q0 -0.4375 0.25 -0.8125q0.25 -0.375 0.71875 -0.5625q0.46875 -0.203125 1.046875 -0.203125q0.640625 0 1.125 0.203125q0.484375 0.203125 0.75 0.609375q0.265625 0.390625 0.28125 0.90625l-0.734375 0.046875q-0.046875 -0.546875 -0.390625 -0.8125q-0.34375 -0.28125 -1.0 -0.28125q-0.6875 0 -1.0 0.25q-0.3125 0.25 -0.3125 0.609375q0 0.3125 0.21875 0.5q0.21875 0.203125 1.140625 0.421875q0.921875 0.203125 1.265625 0.359375q0.5 0.234375 0.734375 0.59375q0.25 0.34375 0.25 0.796875q0 0.46875 -0.265625 0.875q-0.265625 0.390625 -0.75 0.625q-0.484375 0.21875 -1.109375 0.21875q-0.765625 0 -1.296875 -0.21875q-0.53125 -0.234375 -0.828125 -0.6875q-0.296875 -0.453125 -0.3125 -1.03125zm7.0546875 1.84375l0 -5.046875l-1.890625 0l0 -0.6875l4.546875 0l0 0.6875l-1.90625 0l0 5.046875l-0.75 0zm3.4023438 0l0 -5.734375l1.140625 0l1.359375 4.0625q0.1875 0.5625 0.265625 0.84375q0.109375 -0.3125 0.3125 -0.921875l1.375 -3.984375l1.015625 0l0 5.734375l-0.734375 0l0 -4.796875l-1.65625 4.796875l-0.6875 0l-1.65625 -4.875l0 4.875l-0.734375 0z" fill-rule="nonzero"/><path fill="#000000" fill-opacity="0.0" d="m224.94376 37.877956l0 0c3.9312897 0 7.1182404 3.1869507 7.1182404 7.118252l0 233.732c0 1.8878784 -0.7499542 3.6984253 -2.0848846 5.0333557c-1.3349304 1.3349304 -3.1454773 2.0849 -5.0333557 2.0849l-28.472168 0c-3.9312897 0 -7.1182404 -3.1869507 -7.1182404 -7.1182556l0 -233.732c0 -3.931301 3.1869507 -7.118252 7.1182404 -7.118252z" fill-rule="evenodd"/><path stroke="#666666" stroke-width="2.0" stroke-linejoin="round" stroke-linecap="butt" d="m224.94376 37.877956l0 0c3.9312897 0 7.1182404 3.1869507 7.1182404 7.118252l0 233.732c0 1.8878784 -0.7499542 3.6984253 -2.0848846 5.0333557c-1.3349304 1.3349304 -3.1454773 2.0849 -5.0333557 2.0849l-28.472168 0c-3.9312897 0 -7.1182404 -3.1869507 -7.1182404 -7.1182556l0 -233.732c0 -3.931301 3.1869507 -7.118252 7.1182404 -7.118252z" fill-rule="evenodd"/><path fill="#666666" d="m203.78767 113.03742l13.359375 0l0 9.65625l-1.578125 0l0 -7.875l-4.09375 0l0 7.375l-1.5625 0l0 -7.375l-4.546875 0l0 8.1875l-1.578125 0l0 -9.96875zm0 12.334198l13.359375 0l0 1.78125l-11.78125 0l0 6.5624924l-1.578125 0l0 -8.343742zm0 10.40696l13.359375 0l0 2.65625l-9.453125 3.15625q-1.328125 0.4375 -1.984375 0.640625q0.734375 0.234375 2.140625 0.703125l9.296875 3.203125l0 2.375l-13.359375 0l0 -1.703125l11.171875 0l-11.171875 -3.875l0 -1.59375l11.375 -3.859375l-11.375 0l0 -1.703125zm4.84375 14.775177q2.6875 0 3.96875 1.484375q1.078125 1.25 1.078125 3.046875q0 2.0 -1.3125 3.265625q-1.296875 1.265625 -3.609375 1.265625q-1.859375 0 -2.9375 -0.5625q-1.0625 -0.5625 -1.65625 -1.640625q-0.59375 -1.0625 -0.59375 -2.328125q0 -2.03125 1.296875 -3.28125q1.3125 -1.25 3.765625 -1.25zm0 1.6875q-1.859375 0 -2.796875 0.796875q-0.921875 0.8125 -0.921875 2.046875q0 1.21875 0.921875 2.03125q0.9375 0.8125 2.84375 0.8125q1.796875 0 2.71875 -0.8125q0.921875 -0.8125 0.921875 -2.03125q0 -1.234375 -0.921875 -2.046875q-0.90625 -0.796875 -2.765625 -0.796875zm-4.84375 14.605896l13.359375 0l0 1.78125l-11.78125 0l0 6.5625l-1.578125 0l0 -8.34375zm1.1875 16.563217q-0.765625 -0.921875 -1.09375 -1.765625q-0.3125 -0.828125 -0.3125 -1.796875q0 -1.59375 0.78125 -2.453125q0.78125 -0.859375 1.984375 -0.859375q0.71875 0 1.296875 0.328125q0.59375 0.328125 0.9375 0.84375q0.359375 0.53125 0.546875 1.1875q0.125 0.46875 0.25 1.453125q0.234375 1.984375 0.5625 2.921875q0.34375 0.015625 0.421875 0.015625q1.0 0 1.421875 -0.46875q0.546875 -0.625 0.546875 -1.875q0 -1.15625 -0.40625 -1.703125q-0.40625 -0.546875 -1.421875 -0.8125l0.21875 -1.609375q1.015625 0.21875 1.640625 0.71875q0.640625 0.5 0.984375 1.453125q0.34375 0.953125 0.34375 2.1875q0 1.25 -0.296875 2.015625q-0.28125 0.78125 -0.734375 1.140625q-0.4375 0.375 -1.109375 0.515625q-0.421875 0.078125 -1.515625 0.078125l-2.1875 0q-2.28125 0 -2.890625 0.109375q-0.59375 0.109375 -1.15625 0.40625l0 -1.703125q0.515625 -0.265625 1.1875 -0.328125zm3.671875 -0.140625q-0.375 -0.890625 -0.625 -2.671875q-0.140625 -1.015625 -0.328125 -1.4375q-0.1875 -0.421875 -0.53125 -0.65625q-0.34375 -0.21875 -0.78125 -0.21875q-0.65625 0 -1.09375 0.5q-0.4375 0.5 -0.4375 1.453125q0 0.9375 0.40625 1.671875q0.421875 0.75 1.140625 1.09375q0.5625 0.265625 1.640625 0.265625l0.609375 0zm-8.578125 4.125717l1.53125 -0.1875q-0.140625 0.546875 -0.140625 0.9375q0 0.546875 0.1875 0.875q0.171875 0.328125 0.5 0.546875q0.25 0.15625 1.21875 0.5q0.140625 0.046875 0.40625 0.140625l9.6875 -3.671875l0 1.765625l-5.59375 2.015625q-1.078125 0.390625 -2.25 0.703125q1.125 0.28125 2.203125 0.671875l5.640625 2.078125l0 1.640625l-9.828125 -3.6875q-1.609375 -0.59375 -2.203125 -0.921875q-0.8125 -0.4375 -1.1875 -1.0q-0.375 -0.5625 -0.375 -1.34375q0 -0.484375 0.203125 -1.0625zm6.828125 16.03125l-0.203125 1.6875q-1.484375 -0.40625 -2.3125 -1.484375q-0.8125 -1.078125 -0.8125 -2.765625q0 -2.125 1.296875 -3.375q1.3125 -1.234375 3.671875 -1.234375q2.453125 0 3.796875 1.25q1.34375 1.265625 1.34375 3.265625q0 1.9375 -1.328125 3.15625q-1.3125 1.234375 -3.703125 1.234375q-0.15625 0 -0.4375 0l0 -7.21875q-1.59375 0.09375 -2.453125 0.90625q-0.84375 0.8125 -0.84375 2.015625q0 0.90625 0.46875 1.546875q0.484375 0.640625 1.515625 1.015625zm2.65625 -5.390625l0 5.40625q1.21875 -0.109375 1.828125 -0.625q0.953125 -0.78125 0.953125 -2.03125q0 -1.125 -0.765625 -1.90625q-0.75 -0.765625 -2.015625 -0.84375zm-5.765625 9.125717l9.671875 0l0 1.46875l-1.46875 0q1.03125 0.5625 1.359375 1.03125q0.328125 0.484375 0.328125 1.0625q0 0.828125 -0.53125 1.6875l-1.515625 -0.5625q0.359375 -0.609375 0.359375 -1.203125q0 -0.546875 -0.328125 -0.96875q-0.328125 -0.421875 -0.890625 -0.609375q-0.875 -0.28125 -1.921875 -0.28125l-5.0625 0l0 -1.625z" fill-rule="nonzero"/><path fill="#000000" fill-opacity="0.0" d="m232.062 161.86221l49.48033 0.7873993" fill-rule="evenodd"/><path stroke="#424242" stroke-width="1.0" stroke-linejoin="round" stroke-linecap="butt" stroke-dasharray="4.0,3.0" d="m232.06201 161.8622l46.05365 0.73287964" fill-rule="evenodd"/><path fill="#424242" stroke="#424242" stroke-width="1.0" stroke-linecap="butt" d="m278.11566 162.59508l-1.142334 1.1065521l3.1072693 -1.0752869l-3.0714722 -1.1735992z" fill-rule="evenodd"/><path fill="#4285f4" d="m327.06003 84.78479l0 65.74339l2.1692505 0l-4.338501 4.338516l-4.338501 -4.338516l2.1692505 0l0 -65.74339z" fill-rule="evenodd"/><path fill="#4285f4" d="m304.27832 154.8667l0 -65.7434l-2.1692505 0l4.338501 -4.3385086l4.338501 4.3385086l-2.1692505 0l0 65.7434z" fill-rule="evenodd"/><path fill="#4285f4" d="m326.8001 168.97055l0 67.9297l2.1282349 0l-4.2564697 4.2564545l-4.2564697 -4.2564545l2.1282349 0l0 -67.9297z" fill-rule="evenodd"/><path fill="#4285f4" d="m304.44925 241.15671l0 -67.9297l-2.1282349 0l4.2564697 -4.2564545l4.256439 4.2564545l-2.1282349 0l0 67.9297z" fill-rule="evenodd"/><path fill="#000000" fill-opacity="0.0" d="m350.80573 77.90327l23.24408 0.22047424" fill-rule="evenodd"/><path stroke="#424242" stroke-width="1.0" stroke-linejoin="round" stroke-linecap="butt" d="m350.8057 77.903275l19.81717 0.1879654" fill-rule="evenodd"/><path fill="#424242" stroke="#424242" stroke-width="1.0" stroke-linecap="butt" d="m370.62286 78.09124l-1.1352234 1.1138687l3.1003113 -1.0952301l-3.078949 -1.1538391z" fill-rule="evenodd"/><path fill="#000000" fill-opacity="0.0" d="m349.55746 162.65666l24.472443 0.3779602" fill-rule="evenodd"/><path stroke="#424242" stroke-width="1.0" stroke-linejoin="round" stroke-linecap="butt" d="m349.55746 162.65666l21.045746 0.32502747" fill-rule="evenodd"/><path fill="#424242" stroke="#424242" stroke-width="1.0" stroke-linecap="butt" d="m370.6032 162.98169l-1.1418152 1.1070862l3.106781 -1.0767365l-3.072052 -1.1721649z" fill-rule="evenodd"/><path fill="#000000" fill-opacity="0.0" d="m348.50943 248.50462l24.913391 -0.31497192" fill-rule="evenodd"/><path stroke="#424242" stroke-width="1.0" stroke-linejoin="round" stroke-linecap="butt" d="m348.50943 248.50461l21.486603 -0.2716217" fill-rule="evenodd"/><path fill="#424242" stroke="#424242" stroke-width="1.0" stroke-linecap="butt" d="m369.996 248.23297l-1.11026 1.1387177l3.0752869 -1.163559l-3.1037292 -1.085434z" fill-rule="evenodd"/><path fill="#674ea7" d="m442.6667 71.42643l0 13.385826l-68.62991 0l0 -13.385826z" fill-rule="evenodd"/><path stroke="#999999" stroke-width="1.0" stroke-linejoin="round" stroke-linecap="butt" d="m442.6667 71.42643l0 13.385826l-68.62991 0l0 -13.385826z" fill-rule="evenodd"/><path fill="#674ea7" d="m442.66666 156.34258l0 13.385834l-68.629944 0l0 -13.385834z" fill-rule="evenodd"/><path stroke="#999999" stroke-width="1.0" stroke-linejoin="round" stroke-linecap="butt" d="m442.66666 156.34258l0 13.385834l-68.629944 0l0 -13.385834z" fill-rule="evenodd"/><path fill="#674ea7" d="m442.05273 241.49675l0 13.3858185l-68.62991 0l0 -13.3858185z" fill-rule="evenodd"/><path stroke="#999999" stroke-width="1.0" stroke-linejoin="round" stroke-linecap="butt" d="m442.05273 241.49675l0 13.3858185l-68.62991 0l0 -13.3858185z" fill-rule="evenodd"/><path fill="#000000" fill-opacity="0.0" d="m504.46985 45.015747l0 236.28348l-27.181122 0l0 -236.28348z" fill-rule="evenodd"/><path stroke="#666666" stroke-width="1.0" stroke-linejoin="round" stroke-linecap="butt" d="m504.46985 45.015747l0 236.28348l-27.181122 0l0 -236.28348z" fill-rule="evenodd"/><path fill="#666666" d="m483.9593 113.21609l13.359375 0l0 2.65625l-9.453125 3.15625q-1.328125 0.4375 -1.984375 0.640625q0.734375 0.234375 2.140625 0.703125l9.296875 3.203125l0 2.375l-13.359375 0l0 -1.703125l11.171875 0l-11.171875 -3.875l0 -1.59375l11.375 -3.859375l-11.375 0l0 -1.703125zm1.1875 21.697044q-0.765625 -0.921875 -1.09375 -1.765625q-0.3125 -0.828125 -0.3125 -1.796875q0 -1.59375 0.78125 -2.453125q0.78125 -0.859375 1.984375 -0.859375q0.71875 0 1.296875 0.328125q0.59375 0.328125 0.9375 0.84375q0.359375 0.53125 0.546875 1.1875q0.125 0.46875 0.25 1.453125q0.234375 1.984375 0.5625 2.921875q0.34375 0.015625 0.421875 0.015625q1.0 0 1.421875 -0.46875q0.546875 -0.625 0.546875 -1.875q0 -1.15625 -0.40625 -1.703125q-0.40625 -0.546875 -1.421875 -0.8125l0.21875 -1.609375q1.015625 0.21875 1.640625 0.71875q0.640625 0.5 0.984375 1.453125q0.34375 0.953125 0.34375 2.1875q0 1.25 -0.296875 2.015625q-0.28125 0.78125 -0.734375 1.140625q-0.4375 0.375 -1.109375 0.515625q-0.421875 0.078125 -1.515625 0.078125l-2.1875 0q-2.28125 0 -2.890625 0.109375q-0.59375 0.109375 -1.15625 0.40625l0 -1.703125q0.515625 -0.265625 1.1875 -0.328125zm3.671875 -0.140625q-0.375 -0.890625 -0.625 -2.671875q-0.140625 -1.015625 -0.328125 -1.4375q-0.1875 -0.421875 -0.53125 -0.65625q-0.34375 -0.21875 -0.78125 -0.21875q-0.65625 0 -1.09375 0.5q-0.4375 0.5 -0.4375 1.453125q0 0.9375 0.40625 1.671875q0.421875 0.75 1.140625 1.09375q0.5625 0.265625 1.640625 0.265625l0.609375 0zm-4.859375 3.1100922l5.03125 3.53125l4.640625 -3.265625l0 2.046875l-2.265625 1.484375q-0.640625 0.421875 -1.078125 0.671875q0.59375 0.40625 1.0625 0.734375l2.28125 1.640625l0 1.953125l-4.546875 -3.34375l-5.125 3.59375l0 -2.015625l3.0 -1.984375l0.8125 -0.515625l-3.8125 -2.546875l0 -1.984375zm0 15.808304l13.359375 0l0 5.046875q0 1.328125 -0.125 2.03125q-0.171875 0.96875 -0.640625 1.640625q-0.453125 0.671875 -1.28125 1.078125q-0.828125 0.40625 -1.828125 0.40625q-1.703125 0 -2.890625 -1.09375q-1.171875 -1.078125 -1.171875 -3.921875l0 -3.421875l-5.421875 0l0 -1.765625zm7.0 1.765625l0 3.453125q0 1.71875 0.640625 2.4375q0.640625 0.71875 1.796875 0.71875q0.84375 0 1.4375 -0.421875q0.59375 -0.421875 0.78125 -1.125q0.125 -0.4375 0.125 -1.640625l0 -3.421875l-4.78125 0zm-2.15625 9.865448q2.6875 0 3.96875 1.484375q1.078125 1.25 1.078125 3.046875q0 2.0 -1.3125 3.2656403q-1.296875 1.265625 -3.609375 1.265625q-1.859375 0 -2.9375 -0.5625q-1.0625 -0.5625 -1.65625 -1.6406403q-0.59375 -1.0625 -0.59375 -2.328125q0 -2.03125 1.296875 -3.28125q1.3125 -1.25 3.765625 -1.25zm0 1.6875q-1.859375 0 -2.796875 0.796875q-0.921875 0.8125 -0.921875 2.046875q0 1.21875 0.921875 2.03125q0.9375 0.8125 2.84375 0.8125q1.796875 0 2.71875 -0.8125q0.921875 -0.8125 0.921875 -2.03125q0 -1.234375 -0.921875 -2.046875q-0.90625 -0.796875 -2.765625 -0.796875zm0 8.688217q2.6875 0 3.96875 1.484375q1.078125 1.25 1.078125 3.046875q0 2.0 -1.3125 3.265625q-1.296875 1.265625 -3.609375 1.265625q-1.859375 0 -2.9375 -0.5625q-1.0625 -0.5625 -1.65625 -1.640625q-0.59375 -1.0625 -0.59375 -2.328125q0 -2.03125 1.296875 -3.28125q1.3125 -1.25 3.765625 -1.25zm0 1.6875q-1.859375 0 -2.796875 0.796875q-0.921875 0.8125 -0.921875 2.046875q0 1.21875 0.921875 2.03125q0.9375 0.8125 2.84375 0.8125q1.796875 0 2.71875 -0.8125q0.921875 -0.8125 0.921875 -2.03125q0 -1.234375 -0.921875 -2.046875q-0.90625 -0.796875 -2.765625 -0.796875zm-4.84375 9.250732l13.359375 0l0 1.640625l-13.359375 0l0 -1.640625zm11.46875 4.191681l1.890625 0l0 1.640625l-1.890625 0l0 -1.640625zm-11.46875 0l9.671875 0l0 1.640625l-9.671875 0l0 -1.640625zm0 4.1448364l9.671875 0l0 1.46875l-1.375 0q1.59375 1.0625 1.59375 3.078125q0 0.875 -0.3125 1.609375q-0.3125 0.734375 -0.828125 1.09375q-0.5 0.375 -1.203125 0.515625q-0.453125 0.09375 -1.59375 0.09375l-5.953125 0l0 -1.640625l5.890625 0q1.0 0 1.484375 -0.203125q0.5 -0.1875 0.796875 -0.671875q0.296875 -0.484375 0.296875 -1.140625q0 -1.046875 -0.671875 -1.8125q-0.65625 -0.75 -2.515625 -0.75l-5.28125 0l0 -1.640625zm-0.796875 10.063202l-0.234375 1.59375q-0.75 0.109375 -1.078125 0.5625q-0.453125 0.609375 -0.453125 1.671875q0 1.140625 0.453125 1.75q0.453125 0.625 1.265625 0.84375q0.5 0.125 2.109375 0.109375q-1.265625 -1.0625 -1.265625 -2.671875q0 -2.0 1.4375 -3.09375q1.4375 -1.09375 3.453125 -1.09375q1.390625 0 2.5625 0.5q1.171875 0.515625 1.796875 1.453125q0.640625 0.953125 0.640625 2.25q0 1.703125 -1.375 2.8125l1.15625 0l0 1.515625l-8.359375 0q-2.265625 0 -3.203125 -0.46875q-0.9375 -0.453125 -1.484375 -1.453125q-0.546875 -0.984375 -0.546875 -2.453125q0 -1.71875 0.78125 -2.796875q0.765625 -1.0625 2.34375 -1.03125zm5.8125 1.359375q-1.90625 0 -2.78125 0.75q-0.875 0.765625 -0.875 1.90625q0 1.125 0.859375 1.890625q0.875 0.765625 2.734375 0.765625q1.78125 0 2.671875 -0.796875q0.90625 -0.78125 0.90625 -1.890625q0 -1.09375 -0.890625 -1.859375q-0.875 -0.765625 -2.625 -0.765625z" fill-rule="nonzero"/><path fill="#000000" fill-opacity="0.0" d="m442.6667 78.11935l35.905518 0.18897247" fill-rule="evenodd"/><path stroke="#424242" stroke-width="1.0" stroke-linejoin="round" stroke-linecap="butt" d="m442.66666 78.11935l32.478485 0.17093658" fill-rule="evenodd"/><path fill="#424242" stroke="#424242" stroke-width="1.0" stroke-linecap="butt" d="m475.14514 78.29028l-1.1304932 1.1186523l3.095642 -1.1083069l-3.0838013 -1.140831z" fill-rule="evenodd"/><path fill="#000000" fill-opacity="0.0" d="m442.66666 163.03549l34.614166 0.12597656" fill-rule="evenodd"/><path stroke="#424242" stroke-width="1.0" stroke-linejoin="round" stroke-linecap="butt" d="m442.66663 163.03549l31.187103 0.11351013" fill-rule="evenodd"/><path fill="#424242" stroke="#424242" stroke-width="1.0" stroke-linecap="butt" d="m473.85373 163.149l-1.1286621 1.1204834l3.0938416 -1.113327l-3.0856628 -1.1358185z" fill-rule="evenodd"/><path fill="#000000" fill-opacity="0.0" d="m504.46985 163.15749l28.188965 0.44093323" fill-rule="evenodd"/><path stroke="#424242" stroke-width="1.0" stroke-linejoin="round" stroke-linecap="butt" d="m504.46985 163.15749l24.76233 0.38734436" fill-rule="evenodd"/><path fill="#424242" stroke="#424242" stroke-width="1.0" stroke-linecap="butt" d="m529.2322 163.54483l-1.1420288 1.1068573l3.1069336 -1.0761261l-3.0717773 -1.1727753z" fill-rule="evenodd"/><path fill="#0f9d58" d="m601.2983 156.90768l0 13.385834l-68.62988 0l0 -13.385834z" fill-rule="evenodd"/><path stroke="#999999" stroke-width="1.0" stroke-linejoin="round" stroke-linecap="butt" d="m601.2983 156.90768l0 13.385834l-68.62988 0l0 -13.385834z" fill-rule="evenodd"/><path fill="#000000" fill-opacity="0.0" d="m270.99744 318.7195l171.46457 0l0 42.078735l-171.46457 0z" fill-rule="evenodd"/><path fill="#cccccc" d="m309.62543 340.95203l1.765625 0.453125q-0.5625 2.171875 -2.0 3.328125q-1.4375 1.140625 -3.53125 1.140625q-2.15625 0 -3.515625 -0.875q-1.34375 -0.890625 -2.0625 -2.546875q-0.703125 -1.671875 -0.703125 -3.59375q0 -2.078125 0.796875 -3.625q0.796875 -1.5625 2.265625 -2.359375q1.484375 -0.8125 3.25 -0.8125q2.0 0 3.359375 1.015625q1.375 1.015625 1.90625 2.875l-1.734375 0.40625q-0.46875 -1.453125 -1.359375 -2.109375q-0.875 -0.671875 -2.203125 -0.671875q-1.546875 0 -2.578125 0.734375q-1.03125 0.734375 -1.453125 1.984375q-0.421875 1.234375 -0.421875 2.5625q0 1.703125 0.5 2.96875q0.5 1.265625 1.546875 1.90625q1.046875 0.625 2.265625 0.625q1.484375 0 2.515625 -0.859375q1.03125 -0.859375 1.390625 -2.546875zm3.1292114 -0.15625q0 -2.6875 1.484375 -3.96875q1.25 -1.078125 3.046875 -1.078125q2.0 0 3.265625 1.3125q1.265625 1.296875 1.265625 3.609375q0 1.859375 -0.5625 2.9375q-0.5625 1.0625 -1.640625 1.65625q-1.0625 0.59375 -2.328125 0.59375q-2.03125 0 -3.28125 -1.296875q-1.25 -1.3125 -1.25 -3.765625zm1.6875 0q0 1.859375 0.796875 2.796875q0.8125 0.921875 2.046875 0.921875q1.21875 0 2.03125 -0.921875q0.8125 -0.9375 0.8125 -2.84375q0 -1.796875 -0.8125 -2.71875q-0.8125 -0.921875 -2.03125 -0.921875q-1.234375 0 -2.046875 0.921875q-0.796875 0.90625 -0.796875 2.765625zm9.297577 4.84375l0 -9.671875l1.46875 0l0 1.375q1.0625 -1.59375 3.078125 -1.59375q0.875 0 1.609375 0.3125q0.734375 0.3125 1.09375 0.828125q0.375 0.5 0.515625 1.203125q0.09375 0.453125 0.09375 1.59375l0 5.953125l-1.640625 0l0 -5.890625q0 -1.0 -0.203125 -1.484375q-0.1875 -0.5 -0.671875 -0.796875q-0.484375 -0.296875 -1.140625 -0.296875q-1.046875 0 -1.8125 0.671875q-0.75 0.65625 -0.75 2.515625l0 5.28125l-1.640625 0zm13.953857 -1.46875l0.234375 1.453125q-0.6875 0.140625 -1.234375 0.140625q-0.890625 0 -1.390625 -0.28125q-0.484375 -0.28125 -0.6875 -0.734375q-0.203125 -0.46875 -0.203125 -1.9375l0 -5.578125l-1.203125 0l0 -1.265625l1.203125 0l0 -2.390625l1.625 -0.984375l0 3.375l1.65625 0l0 1.265625l-1.65625 0l0 5.671875q0 0.6875 0.078125 0.890625q0.09375 0.203125 0.28125 0.328125q0.203125 0.109375 0.578125 0.109375q0.265625 0 0.71875 -0.0625zm8.230164 -1.640625l1.6875 0.203125q-0.40625 1.484375 -1.484375 2.3125q-1.078125 0.8125 -2.765625 0.8125q-2.125 0 -3.375 -1.296875q-1.234375 -1.3125 -1.234375 -3.671875q0 -2.453125 1.25 -3.796875q1.265625 -1.34375 3.265625 -1.34375q1.9375 0 3.15625 1.328125q1.234375 1.3125 1.234375 3.703125q0 0.15625 0 0.4375l-7.21875 0q0.09375 1.59375 0.90625 2.453125q0.8125 0.84375 2.015625 0.84375q0.90625 0 1.546875 -0.46875q0.640625 -0.484375 1.015625 -1.515625zm-5.390625 -2.65625l5.40625 0q-0.109375 -1.21875 -0.625 -1.828125q-0.78125 -0.953125 -2.03125 -0.953125q-1.125 0 -1.90625 0.765625q-0.765625 0.75 -0.84375 2.015625zm8.047607 5.765625l3.53125 -5.03125l-3.265625 -4.640625l2.046875 0l1.484375 2.265625q0.421875 0.640625 0.671875 1.078125q0.40625 -0.59375 0.734375 -1.0625l1.640625 -2.28125l1.953125 0l-3.34375 4.546875l3.59375 5.125l-2.015625 0l-1.984375 -3.0l-0.515625 -0.8125l-2.546875 3.8125l-1.984375 0zm14.0 -1.46875l0.234375 1.453125q-0.6875 0.140625 -1.234375 0.140625q-0.890625 0 -1.390625 -0.28125q-0.484375 -0.28125 -0.6875 -0.734375q-0.203125 -0.46875 -0.203125 -1.9375l0 -5.578125l-1.203125 0l0 -1.265625l1.203125 0l0 -2.390625l1.625 -0.984375l0 3.375l1.65625 0l0 1.265625l-1.65625 0l0 5.671875q0 0.6875 0.078125 0.890625q0.09375 0.203125 0.28125 0.328125q0.203125 0.109375 0.578125 0.109375q0.265625 0 0.71875 -0.0625zm6.9134827 1.46875l0 -13.359375l1.78125 0l0 11.78125l6.5625 0l0 1.578125l-8.34375 0zm16.563202 -1.1875q-0.921875 0.765625 -1.765625 1.09375q-0.828125 0.3125 -1.796875 0.3125q-1.59375 0 -2.453125 -0.78125q-0.859375 -0.78125 -0.859375 -1.984375q0 -0.71875 0.328125 -1.296875q0.328125 -0.59375 0.84375 -0.9375q0.53125 -0.359375 1.1875 -0.546875q0.46875 -0.125 1.453125 -0.25q1.984375 -0.234375 2.921875 -0.5625q0.015625 -0.34375 0.015625 -0.421875q0 -1.0 -0.46875 -1.421875q-0.625 -0.546875 -1.875 -0.546875q-1.15625 0 -1.703125 0.40625q-0.546875 0.40625 -0.8125 1.421875l-1.609375 -0.21875q0.21875 -1.015625 0.71875 -1.640625q0.5 -0.640625 1.453125 -0.984375q0.953125 -0.34375 2.1875 -0.34375q1.25 0 2.015625 0.296875q0.78125 0.28125 1.140625 0.734375q0.375 0.4375 0.515625 1.109375q0.078125 0.421875 0.078125 1.515625l0 2.1875q0 2.28125 0.109375 2.890625q0.109375 0.59375 0.40625 1.15625l-1.703125 0q-0.265625 -0.515625 -0.328125 -1.1875zm-0.140625 -3.671875q-0.890625 0.375 -2.671875 0.625q-1.015625 0.140625 -1.4375 0.328125q-0.421875 0.1875 -0.65625 0.53125q-0.21875 0.34375 -0.21875 0.78125q0 0.65625 0.5 1.09375q0.5 0.4375 1.453125 0.4375q0.9375 0 1.671875 -0.40625q0.75 -0.421875 1.09375 -1.140625q0.265625 -0.5625 0.265625 -1.640625l0 -0.609375zm4.1257324 8.578125l-0.1875 -1.53125q0.546875 0.140625 0.9375 0.140625q0.546875 0 0.875 -0.1875q0.328125 -0.171875 0.546875 -0.5q0.15625 -0.25 0.5 -1.21875q0.046875 -0.140625 0.140625 -0.40625l-3.671875 -9.6875l1.765625 0l2.015625 5.59375q0.390625 1.078125 0.703125 2.25q0.28125 -1.125 0.671875 -2.203125l2.078125 -5.640625l1.640625 0l-3.6875 9.828125q-0.59375 1.609375 -0.921875 2.203125q-0.4375 0.8125 -1.0 1.1875q-0.5625 0.375 -1.34375 0.375q-0.484375 0 -1.0625 -0.203125zm16.03125 -6.828125l1.6875 0.203125q-0.40625 1.484375 -1.484375 2.3125q-1.078125 0.8125 -2.765625 0.8125q-2.125 0 -3.375 -1.296875q-1.234375 -1.3125 -1.234375 -3.671875q0 -2.453125 1.25 -3.796875q1.265625 -1.34375 3.265625 -1.34375q1.9375 0 3.15625 1.328125q1.234375 1.3125 1.234375 3.703125q0 0.15625 0 0.4375l-7.21875 0q0.09375 1.59375 0.90625 2.453125q0.8125 0.84375 2.015625 0.84375q0.90625 0 1.546875 -0.46875q0.640625 -0.484375 1.015625 -1.515625zm-5.390625 -2.65625l5.40625 0q-0.109375 -1.21875 -0.625 -1.828125q-0.78125 -0.953125 -2.03125 -0.953125q-1.125 0 -1.90625 0.765625q-0.765625 0.75 -0.84375 2.015625zm9.125702 5.765625l0 -9.671875l1.46875 0l0 1.46875q0.5625 -1.03125 1.03125 -1.359375q0.484375 -0.328125 1.0625 -0.328125q0.828125 0 1.6875 0.53125l-0.5625 1.515625q-0.609375 -0.359375 -1.203125 -0.359375q-0.546875 0 -0.96875 0.328125q-0.421875 0.328125 -0.609375 0.890625q-0.28125 0.875 -0.28125 1.921875l0 5.0625l-1.625 0z" fill-rule="nonzero"/><path fill="#000000" fill-opacity="0.0" d="m452.59262 301.7642l171.46457 0l0 42.078766l-171.46457 0z" fill-rule="evenodd"/><path fill="#cccccc" d="m499.75186 324.38733l1.65625 -0.140625q0.125 1.0 0.546875 1.640625q0.4375 0.640625 1.34375 1.046875q0.921875 0.390625 2.0625 0.390625q1.0 0 1.78125 -0.296875q0.78125 -0.296875 1.15625 -0.8125q0.375 -0.53125 0.375 -1.15625q0 -0.625 -0.375 -1.09375q-0.359375 -0.46875 -1.1875 -0.796875q-0.546875 -0.203125 -2.390625 -0.640625q-1.828125 -0.453125 -2.5625 -0.84375q-0.96875 -0.5 -1.4375 -1.234375q-0.46875 -0.75 -0.46875 -1.671875q0 -1.0 0.578125 -1.875q0.578125 -0.890625 1.671875 -1.34375q1.109375 -0.453125 2.453125 -0.453125q1.484375 0 2.609375 0.484375q1.140625 0.46875 1.75 1.40625q0.609375 0.921875 0.65625 2.09375l-1.6875 0.125q-0.140625 -1.265625 -0.9375 -1.90625q-0.78125 -0.65625 -2.3125 -0.65625q-1.609375 0 -2.34375 0.59375q-0.734375 0.59375 -0.734375 1.421875q0 0.71875 0.53125 1.171875q0.5 0.46875 2.65625 0.96875q2.15625 0.484375 2.953125 0.84375q1.171875 0.53125 1.71875 1.359375q0.5625 0.828125 0.5625 1.90625q0 1.0625 -0.609375 2.015625q-0.609375 0.9375 -1.75 1.46875q-1.140625 0.515625 -2.578125 0.515625q-1.8125 0 -3.046875 -0.53125q-1.21875 -0.53125 -1.921875 -1.59375q-0.6875 -1.0625 -0.71875 -2.40625zm19.459198 1.1875l1.6875 0.203125q-0.40625 1.484375 -1.484375 2.3125q-1.078125 0.8125 -2.765625 0.8125q-2.125 0 -3.375 -1.296875q-1.234375 -1.3125 -1.234375 -3.671875q0 -2.453125 1.25 -3.796875q1.265625 -1.34375 3.265625 -1.34375q1.9375 0 3.15625 1.328125q1.234375 1.3125 1.234375 3.703125q0 0.15625 0 0.4375l-7.21875 0q0.09375 1.59375 0.90625 2.453125q0.8125 0.84375 2.015625 0.84375q0.90625 0 1.546875 -0.46875q0.640625 -0.484375 1.015625 -1.515625zm-5.390625 -2.65625l5.40625 0q-0.109375 -1.21875 -0.625 -1.828125q-0.78125 -0.953125 -2.03125 -0.953125q-1.125 0 -1.90625 0.765625q-0.765625 0.75 -0.84375 2.015625zm9.141357 5.765625l0 -9.671875l1.46875 0l0 1.375q1.0625 -1.59375 3.078125 -1.59375q0.875 0 1.609375 0.3125q0.734375 0.3125 1.09375 0.828125q0.375 0.5 0.515625 1.203125q0.09375 0.453125 0.09375 1.59375l0 5.953125l-1.640625 0l0 -5.890625q0 -1.0 -0.203125 -1.484375q-0.1875 -0.5 -0.671875 -0.796875q-0.484375 -0.296875 -1.140625 -0.296875q-1.046875 0 -1.8125 0.671875q-0.75 0.65625 -0.75 2.515625l0 5.28125l-1.640625 0zm13.953796 -1.46875l0.234375 1.453125q-0.6875 0.140625 -1.234375 0.140625q-0.890625 0 -1.390625 -0.28125q-0.484375 -0.28125 -0.6875 -0.734375q-0.203125 -0.46875 -0.203125 -1.9375l0 -5.578125l-1.203125 0l0 -1.265625l1.203125 0l0 -2.390625l1.625 -0.984375l0 3.375l1.65625 0l0 1.265625l-1.65625 0l0 5.671875q0 0.6875 0.078125 0.890625q0.09375 0.203125 0.28125 0.328125q0.203125 0.109375 0.578125 0.109375q0.265625 0 0.71875 -0.0625zm8.230225 -1.640625l1.6875 0.203125q-0.40625 1.484375 -1.484375 2.3125q-1.078125 0.8125 -2.765625 0.8125q-2.125 0 -3.375 -1.296875q-1.234375 -1.3125 -1.234375 -3.671875q0 -2.453125 1.25 -3.796875q1.265625 -1.34375 3.265625 -1.34375q1.9375 0 3.15625 1.328125q1.234375 1.3125 1.234375 3.703125q0 0.15625 0 0.4375l-7.21875 0q0.09375 1.59375 0.90625 2.453125q0.8125 0.84375 2.015625 0.84375q0.90625 0 1.546875 -0.46875q0.640625 -0.484375 1.015625 -1.515625zm-5.390625 -2.65625l5.40625 0q-0.109375 -1.21875 -0.625 -1.828125q-0.78125 -0.953125 -2.03125 -0.953125q-1.125 0 -1.90625 0.765625q-0.765625 0.75 -0.84375 2.015625zm9.141296 5.765625l0 -9.671875l1.46875 0l0 1.375q1.0625 -1.59375 3.078125 -1.59375q0.875 0 1.609375 0.3125q0.734375 0.3125 1.09375 0.828125q0.375 0.5 0.515625 1.203125q0.09375 0.453125 0.09375 1.59375l0 5.953125l-1.640625 0l0 -5.890625q0 -1.0 -0.203125 -1.484375q-0.1875 -0.5 -0.671875 -0.796875q-0.484375 -0.296875 -1.140625 -0.296875q-1.046875 0 -1.8125 0.671875q-0.75 0.65625 -0.75 2.515625l0 5.28125l-1.640625 0zm16.688232 -3.546875l1.609375 0.21875q-0.265625 1.65625 -1.359375 2.609375q-1.078125 0.9375 -2.671875 0.9375q-1.984375 0 -3.1875 -1.296875q-1.203125 -1.296875 -1.203125 -3.71875q0 -1.578125 0.515625 -2.75q0.515625 -1.171875 1.578125 -1.75q1.0625 -0.59375 2.3125 -0.59375q1.578125 0 2.578125 0.796875q1.0 0.796875 1.28125 2.265625l-1.59375 0.234375q-0.234375 -0.96875 -0.8125 -1.453125q-0.578125 -0.5 -1.390625 -0.5q-1.234375 0 -2.015625 0.890625q-0.78125 0.890625 -0.78125 2.8125q0 1.953125 0.75 2.84375q0.75 0.875 1.953125 0.875q0.96875 0 1.609375 -0.59375q0.65625 -0.59375 0.828125 -1.828125zm9.640625 0.4375l1.6875 0.203125q-0.40625 1.484375 -1.484375 2.3125q-1.078125 0.8125 -2.765625 0.8125q-2.125 0 -3.375 -1.296875q-1.234375 -1.3125 -1.234375 -3.671875q0 -2.453125 1.25 -3.796875q1.265625 -1.34375 3.265625 -1.34375q1.9375 0 3.15625 1.328125q1.234375 1.3125 1.234375 3.703125q0 0.15625 0 0.4375l-7.21875 0q0.09375 1.59375 0.90625 2.453125q0.8125 0.84375 2.015625 0.84375q0.90625 0 1.546875 -0.46875q0.640625 -0.484375 1.015625 -1.515625zm-5.390625 -2.65625l5.40625 0q-0.109375 -1.21875 -0.625 -1.828125q-0.78125 -0.953125 -2.03125 -0.953125q-1.125 0 -1.90625 0.765625q-0.765625 0.75 -0.84375 2.015625z" fill-rule="nonzero"/><path fill="#cccccc" d="m505.05002 350.6842l0 -13.359375l9.6562805 0l0 1.578125l-7.8750305 0l0 4.09375l7.3750305 0l0 1.5625l-7.3750305 0l0 4.546875l8.1875305 0l0 1.578125l-9.9687805 0zm12.209198 0l0 -9.671875l1.46875 0l0 1.375q1.0625 -1.59375 3.078125 -1.59375q0.875 0 1.609375 0.3125q0.734375 0.3125 1.09375 0.828125q0.375 0.5 0.515625 1.203125q0.09375 0.453125 0.09375 1.59375l0 5.953125l-1.640625 0l0 -5.890625q0 -1.0 -0.203125 -1.484375q-0.1875 -0.5 -0.671875 -0.796875q-0.484375 -0.296875 -1.140625 -0.296875q-1.046875 0 -1.8125 0.671875q-0.75 0.65625 -0.75 2.515625l0 5.28125l-1.640625 0zm16.688232 -3.546875l1.609375 0.21875q-0.265625 1.65625 -1.359375 2.609375q-1.078125 0.9375 -2.671875 0.9375q-1.984375 0 -3.1875 -1.296875q-1.203125 -1.296875 -1.203125 -3.71875q0 -1.578125 0.515625 -2.75q0.515625 -1.171875 1.578125 -1.75q1.0625 -0.59375 2.3125 -0.59375q1.578125 0 2.578125 0.796875q1.0 0.796875 1.28125 2.265625l-1.59375 0.234375q-0.234375 -0.96875 -0.8125 -1.453125q-0.578125 -0.5 -1.390625 -0.5q-1.234375 0 -2.015625 0.890625q-0.78125 0.890625 -0.78125 2.8125q0 1.953125 0.75 2.84375q0.75 0.875 1.953125 0.875q0.96875 0 1.609375 -0.59375q0.65625 -0.59375 0.828125 -1.828125zm2.40625 -1.296875q0 -2.6875 1.484375 -3.96875q1.25 -1.078125 3.046875 -1.078125q2.0 0 3.265625 1.3125q1.265625 1.296875 1.265625 3.609375q0 1.859375 -0.5625 2.9375q-0.5625 1.0625 -1.640625 1.65625q-1.0625 0.59375 -2.328125 0.59375q-2.03125 0 -3.28125 -1.296875q-1.25 -1.3125 -1.25 -3.765625zm1.6875 0q0 1.859375 0.796875 2.796875q0.8125 0.921875 2.046875 0.921875q1.21875 0 2.03125 -0.921875q0.8125 -0.9375 0.8125 -2.84375q0 -1.796875 -0.8125 -2.71875q-0.8125 -0.921875 -2.03125 -0.921875q-1.234375 0 -2.046875 0.921875q-0.796875 0.90625 -0.796875 2.765625zm15.563232 4.84375l0 -1.21875q-0.90625 1.4375 -2.703125 1.4375q-1.15625 0 -2.125 -0.640625q-0.96875 -0.640625 -1.5 -1.78125q-0.53125 -1.140625 -0.53125 -2.625q0 -1.453125 0.484375 -2.625q0.484375 -1.1875 1.4375 -1.8125q0.96875 -0.625 2.171875 -0.625q0.875 0 1.546875 0.375q0.6875 0.359375 1.109375 0.953125l0 -4.796875l1.640625 0l0 13.359375l-1.53125 0zm-5.171875 -4.828125q0 1.859375 0.78125 2.78125q0.78125 0.921875 1.84375 0.921875q1.078125 0 1.828125 -0.875q0.75 -0.890625 0.75 -2.6875q0 -1.984375 -0.765625 -2.90625q-0.765625 -0.9375 -1.890625 -0.9375q-1.078125 0 -1.8125 0.890625q-0.734375 0.890625 -0.734375 2.8125zm15.906921 1.71875l1.6875 0.203125q-0.40625 1.484375 -1.484375 2.3125q-1.078125 0.8125 -2.765625 0.8125q-2.125 0 -3.375 -1.296875q-1.234375 -1.3125 -1.234375 -3.671875q0 -2.453125 1.25 -3.796875q1.265625 -1.34375 3.265625 -1.34375q1.9375 0 3.15625 1.328125q1.234375 1.3125 1.234375 3.703125q0 0.15625 0 0.4375l-7.21875 0q0.09375 1.59375 0.90625 2.453125q0.8125 0.84375 2.015625 0.84375q0.90625 0 1.546875 -0.46875q0.640625 -0.484375 1.015625 -1.515625zm-5.390625 -2.65625l5.40625 0q-0.109375 -1.21875 -0.625 -1.828125q-0.78125 -0.953125 -2.03125 -0.953125q-1.125 0 -1.90625 0.765625q-0.765625 0.75 -0.84375 2.015625zm9.125732 5.765625l0 -9.671875l1.46875 0l0 1.46875q0.5625 -1.03125 1.03125 -1.359375q0.484375 -0.328125 1.0625 -0.328125q0.828125 0 1.6875 0.53125l-0.5625 1.515625q-0.609375 -0.359375 -1.203125 -0.359375q-0.546875 0 -0.96875 0.328125q-0.421875 0.328125 -0.609375 0.890625q-0.28125 0.875 -0.28125 1.921875l0 5.0625l-1.625 0z" fill-rule="nonzero"/><path fill="#000000" fill-opacity="0.0" d="m260.6686 -44.963253l-0.881897 464.9449" fill-rule="evenodd"/><path stroke="#d9d9d9" stroke-width="1.0" stroke-linejoin="round" stroke-linecap="butt" stroke-dasharray="4.0,3.0" d="m260.6686 -44.963253l-0.881897 464.9449" fill-rule="evenodd"/><path fill="#000000" fill-opacity="0.0" d="m451.7296 -42.165207l-2.551178 459.937" fill-rule="evenodd"/><path stroke="#d9d9d9" stroke-width="1.0" stroke-linejoin="round" stroke-linecap="butt" stroke-dasharray="4.0,3.0" d="m451.7296 -42.165207l-2.551178 459.937" fill-rule="evenodd"/><path fill="#3c78d8" d="m350.80573 72.56469l0 10.677162l-68.0 0l0 -10.677162z" fill-rule="evenodd"/><path stroke="#999999" stroke-width="1.0" stroke-linejoin="round" stroke-linecap="butt" d="m350.80573 72.56469l0 10.677162l-68.0 0l0 -10.677162z" fill-rule="evenodd"/><path fill="#3c78d8" d="m349.55746 157.31808l0 10.67717l-68.0 0l0 -10.67717z" fill-rule="evenodd"/><path stroke="#999999" stroke-width="1.0" stroke-linejoin="round" stroke-linecap="butt" d="m349.55746 157.31808l0 10.67717l-68.0 0l0 -10.67717z" fill-rule="evenodd"/><path fill="#3c78d8" d="m349.55746 242.71878l0 10.67717l-68.0 0l0 -10.67717z" fill-rule="evenodd"/><path stroke="#999999" stroke-width="1.0" stroke-linejoin="round" stroke-linecap="butt" d="m349.55746 242.71878l0 10.67717l-68.0 0l0 -10.67717z" fill-rule="evenodd"/><path fill="#000000" fill-opacity="0.0" d="m230.78583 247.99437l50.771637 0.06298828" fill-rule="evenodd"/><path stroke="#424242" stroke-width="1.0" stroke-linejoin="round" stroke-linecap="butt" stroke-dasharray="4.0,3.0" d="m230.78583 247.99435l47.344574 0.058761597" fill-rule="evenodd"/><path fill="#424242" stroke="#424242" stroke-width="1.0" stroke-linecap="butt" d="m278.1304 248.0531l-1.1259766 1.1231842l3.091156 -1.1207428l-3.088379 -1.128418z" fill-rule="evenodd"/><path fill="#000000" fill-opacity="0.0" d="m442.05273 248.18965l36.472443 -0.37794495" fill-rule="evenodd"/><path stroke="#424242" stroke-width="1.0" stroke-linejoin="round" stroke-linecap="butt" d="m442.05273 248.18965l33.045532 -0.34243774" fill-rule="evenodd"/><path fill="#424242" stroke="#424242" stroke-width="1.0" stroke-linecap="butt" d="m475.09827 247.84721l-1.112854 1.1361694l3.077942 -1.1565399l-3.1012573 -1.0924988z" fill-rule="evenodd"/><path fill="#000000" fill-opacity="0.0" d="m601.2983 163.6006l29.007874 -0.28346252" fill-rule="evenodd"/><path stroke="#424242" stroke-width="1.0" stroke-linejoin="round" stroke-linecap="butt" d="m601.29834 163.6006l25.580933 -0.24998474" fill-rule="evenodd"/><path fill="#424242" stroke="#424242" stroke-width="1.0" stroke-linecap="butt" d="m626.8793 163.35062l-1.1135254 1.1355286l3.0786133 -1.1547241l-3.100647 -1.0943451z" fill-rule="evenodd"/><path fill="#000000" fill-opacity="0.0" d="m657.48004 48.13371l0 230.3622l-27.181091 0l0 -230.3622z" fill-rule="evenodd"/><path stroke="#666666" stroke-width="1.0" stroke-linejoin="round" stroke-linecap="butt" d="m657.48004 48.13371l0 230.3622l-27.181091 0l0 -230.3622z" fill-rule="evenodd"/><path fill="#666666" d="m636.9695 60.12328l13.359375 0l0 9.015621l-1.578125 0l0 -7.249996l-4.140625 0l0 6.265621l-1.578125 0l0 -6.265621l-6.0625 0l0 -1.765625zm0 17.427227l1.421875 0q-1.640625 -1.125 -1.640625 -3.0625q0 -0.859375 0.328125 -1.609375q0.328125 -0.734375 0.828125 -1.09375q0.5 -0.359375 1.21875 -0.5q0.46875 -0.109375 1.53125 -0.109375l5.984375 0l0 1.640625l-5.359375 0q-1.28125 0 -1.734375 0.109375q-0.640625 0.15625 -1.015625 0.65625q-0.375 0.5 -0.375 1.234375q0 0.734375 0.375 1.375q0.390625 0.65625 1.03125 0.921875q0.65625 0.265625 1.890625 0.265625l5.1875 0l0 1.640625l-9.671875 0l0 -1.46875zm0 4.000717l13.359375 0l0 1.640625l-13.359375 0l0 -1.640625zm0 4.144821l13.359375 0l0 1.640625l-13.359375 0l0 -1.640625zm-3.71875 4.113571l1.53125 -0.1875q-0.140625 0.546875 -0.140625 0.9375q0 0.546875 0.1875 0.875q0.171875 0.328125 0.5 0.546875q0.25 0.15625 1.21875 0.5q0.140625 0.046875 0.40625 0.140625l9.6875 -3.671875l0 1.765625l-5.59375 2.015625q-1.078125 0.390625 -2.25 0.703125q1.125 0.28125 2.203125 0.671875l5.640625 2.078125l0 1.640625l-9.828125 -3.6875q-1.609375 -0.59375 -2.203125 -0.921875q-0.8125 -0.4375 -1.1875 -1.0q-0.375 -0.5625 -0.375 -1.34375q0 -0.484375 0.203125 -1.0625zm7.734375 8.765625l1.640625 0l0 5.03125l-1.640625 0l0 -5.03125zm0.671875 16.587677l-0.453125 1.765625q-2.171875 -0.5625 -3.328125 -2.0q-1.140625 -1.4375 -1.140625 -3.53125q0 -2.15625 0.875 -3.515625q0.890625 -1.34375 2.546875 -2.0625q1.671875 -0.703125 3.59375 -0.703125q2.078125 0 3.625 0.796875q1.5625 0.796875 2.359375 2.265625q0.8125 1.484375 0.8125 3.25q0 2.0 -1.015625 3.359375q-1.015625 1.375 -2.875 1.90625l-0.40625 -1.734375q1.453125 -0.46875 2.109375 -1.359375q0.671875 -0.875 0.671875 -2.203125q0 -1.546875 -0.734375 -2.578125q-0.734375 -1.03125 -1.984375 -1.453125q-1.234375 -0.421875 -2.5625 -0.421875q-1.703125 0 -2.96875 0.5q-1.265625 0.5 -1.90625 1.546875q-0.625 1.046875 -0.625 2.265625q0 1.484375 0.859375 2.515625q0.859375 1.03125 2.546875 1.390625zm0.15625 3.1291962q2.6875 0 3.96875 1.484375q1.078125 1.25 1.078125 3.046875q0 2.0 -1.3125 3.265625q-1.296875 1.265625 -3.609375 1.265625q-1.859375 0 -2.9375 -0.5625q-1.0625 -0.5625 -1.65625 -1.640625q-0.59375 -1.0625 -0.59375 -2.328125q0 -2.03125 1.296875 -3.28125q1.3125 -1.25 3.765625 -1.25zm0 1.6875q-1.859375 0 -2.796875 0.796875q-0.921875 0.8125 -0.921875 2.046875q0 1.21875 0.921875 2.03125q0.9375 0.8125 2.84375 0.8125q1.796875 0 2.71875 -0.8125q0.921875 -0.8125 0.921875 -2.03125q0 -1.234375 -0.921875 -2.046875q-0.90625 -0.796875 -2.765625 -0.796875zm-4.84375 9.297592l9.671875 0l0 1.46875l-1.375 0q1.59375 1.0625 1.59375 3.078125q0 0.875 -0.3125 1.609375q-0.3125 0.734375 -0.828125 1.09375q-0.5 0.375 -1.203125 0.515625q-0.453125 0.09375 -1.59375 0.09375l-5.953125 0l0 -1.640625l5.890625 0q1.0 0 1.484375 -0.203125q0.5 -0.1875 0.796875 -0.671875q0.296875 -0.484375 0.296875 -1.140625q0 -1.046875 -0.671875 -1.8125q-0.65625 -0.75 -2.515625 -0.75l-5.28125 0l0 -1.640625zm0 10.375717l9.671875 0l0 1.46875l-1.375 0q1.59375 1.0625 1.59375 3.078125q0 0.875 -0.3125 1.609375q-0.3125 0.734375 -0.828125 1.09375q-0.5 0.375 -1.203125 0.515625q-0.453125 0.09375 -1.59375 0.09375l-5.953125 0l0 -1.640625l5.890625 0q1.0 0 1.484375 -0.203125q0.5 -0.1875 0.796875 -0.671875q0.296875 -0.484375 0.296875 -1.140625q0 -1.046875 -0.671875 -1.8125q-0.65625 -0.75 -2.515625 -0.75l-5.28125 0l0 -1.640625zm3.109375 17.000717l-0.203125 1.6875q-1.484375 -0.40625 -2.3125 -1.484375q-0.8125 -1.078125 -0.8125 -2.765625q0 -2.125 1.296875 -3.375q1.3125 -1.234375 3.671875 -1.234375q2.453125 0 3.796875 1.25q1.34375 1.265625 1.34375 3.265625q0 1.9375 -1.328125 3.15625q-1.3125 1.234375 -3.703125 1.234375q-0.15625 0 -0.4375 0l0 -7.21875q-1.59375 0.09375 -2.453125 0.90625q-0.84375 0.8125 -0.84375 2.015625q0 0.90625 0.46875 1.546875q0.484375 0.640625 1.515625 1.015625zm2.65625 -5.390625l0 5.40625q1.21875 -0.109375 1.828125 -0.625q0.953125 -0.78125 0.953125 -2.03125q0 -1.125 -0.765625 -1.90625q-0.75 -0.765625 -2.015625 -0.84375zm-2.21875 15.453842l-0.21875 1.609375q-1.65625 -0.265625 -2.609375 -1.359375q-0.9375 -1.078125 -0.9375 -2.671875q0 -1.984375 1.296875 -3.1875q1.296875 -1.203125 3.71875 -1.203125q1.578125 0 2.75 0.515625q1.171875 0.515625 1.75 1.578125q0.59375 1.0625 0.59375 2.3125q0 1.578125 -0.796875 2.578125q-0.796875 1.0 -2.265625 1.28125l-0.234375 -1.59375q0.96875 -0.234375 1.453125 -0.8125q0.5 -0.578125 0.5 -1.390625q0 -1.234375 -0.890625 -2.015625q-0.890625 -0.78125 -2.8125 -0.78125q-1.953125 0 -2.84375 0.75q-0.875 0.75 -0.875 1.953125q0 0.96875 0.59375 1.609375q0.59375 0.65625 1.828125 0.828125zm-2.078125 6.59375l-1.453125 0.234375q-0.140625 -0.6875 -0.140625 -1.234375q0 -0.890625 0.28125 -1.390625q0.28125 -0.484375 0.734375 -0.6875q0.46875 -0.203125 1.9375 -0.203125l5.578125 0l0 -1.203125l1.265625 0l0 1.203125l2.390625 0l0.984375 1.625l-3.375 0l0 1.65625l-1.265625 0l0 -1.65625l-5.671875 0q-0.6875 0 -0.890625 0.078125q-0.203125 0.09375 -0.328125 0.28125q-0.109375 0.203125 -0.109375 0.578125q0 0.265625 0.0625 0.71875zm1.640625 8.230179l-0.203125 1.6875q-1.484375 -0.40625 -2.3125 -1.484375q-0.8125 -1.078125 -0.8125 -2.765625q0 -2.125 1.296875 -3.375q1.3125 -1.234375 3.671875 -1.234375q2.453125 0 3.796875 1.25q1.34375 1.265625 1.34375 3.265625q0 1.9375 -1.328125 3.15625q-1.3125 1.234375 -3.703125 1.234375q-0.15625 0 -0.4375 0l0 -7.21875q-1.59375 0.09375 -2.453125 0.90625q-0.84375 0.8125 -0.84375 2.015625q0 0.90625 0.46875 1.546875q0.484375 0.640625 1.515625 1.015625zm2.65625 -5.390625l0 5.40625q1.21875 -0.109375 1.828125 -0.625q0.953125 -0.78125 0.953125 -2.03125q0 -1.125 -0.765625 -1.90625q-0.75 -0.765625 -2.015625 -0.84375zm-5.765625 15.406982l1.21875 0q-1.4375 -0.90625 -1.4375 -2.703125q0 -1.15625 0.640625 -2.125q0.640625 -0.96875 1.78125 -1.5q1.140625 -0.53125 2.625 -0.53125q1.453125 0 2.625 0.484375q1.1875 0.484375 1.8125 1.4375q0.625 0.96875 0.625 2.171875q0 0.875 -0.375 1.546875q-0.359375 0.6875 -0.953125 1.109375l4.796875 0l0 1.640625l-13.359375 0l0 -1.53125zm4.828125 -5.171875q-1.859375 0 -2.78125 0.78125q-0.921875 0.78125 -0.921875 1.84375q0 1.078125 0.875 1.828125q0.890625 0.75 2.6875 0.75q1.984375 0 2.90625 -0.765625q0.9375 -0.765625 0.9375 -1.890625q0 -1.078125 -0.890625 -1.8125q-0.890625 -0.734375 -2.8125 -0.734375zm-4.828125 14.652771l13.359375 0l0 1.8125l-10.484375 7.015625l10.484375 0l0 1.6875l-13.359375 0l0 -1.8125l10.5 -7.015625l-10.5 0l0 -1.6875zm3.109375 19.91043l-0.203125 1.6875q-1.484375 -0.40625 -2.3125 -1.484375q-0.8125 -1.078125 -0.8125 -2.765625q0 -2.125 1.296875 -3.375q1.3125 -1.234375 3.671875 -1.234375q2.453125 0 3.796875 1.25q1.34375 1.265625 1.34375 3.265625q0 1.9375 -1.328125 3.15625q-1.3125 1.234375 -3.703125 1.234375q-0.15625 0 -0.4375 0l0 -7.21875q-1.59375 0.09375 -2.453125 0.90625q-0.84375 0.8125 -0.84375 2.015625q0 0.90625 0.46875 1.546875q0.484375 0.640625 1.515625 1.015625zm2.65625 -5.390625l0 5.40625q1.21875 -0.109375 1.828125 -0.625q0.953125 -0.78125 0.953125 -2.03125q0 -1.125 -0.765625 -1.90625q-0.75 -0.765625 -2.015625 -0.84375zm-4.296875 12.719482l-1.453125 0.234375q-0.140625 -0.6875 -0.140625 -1.234375q0 -0.890625 0.28125 -1.390625q0.28125 -0.484375 0.734375 -0.6875q0.46875 -0.203125 1.9375 -0.203125l5.578125 0l0 -1.203125l1.265625 0l0 1.203125l2.390625 0l0.984375 1.625l-3.375 0l0 1.65625l-1.265625 0l0 -1.65625l-5.671875 0q-0.6875 0 -0.890625 0.078125q-0.203125 0.09375 -0.328125 0.28125q-0.109375 0.203125 -0.109375 0.578125q0 0.265625 0.0625 0.71875zm-1.46875 3.3864136l9.671875 -2.96875l0 1.703125l-5.578125 1.53125l-2.078125 0.578125q0.15625 0.046875 2.0 0.5l5.65625 1.546875l0 1.6875l-5.609375 1.4375l-1.84375 0.484375l1.859375 0.5625l5.59375 1.65625l0 1.59375l-9.671875 -3.03125l0 -1.703125l5.796875 -1.53125l1.640625 -0.375l-7.4375 -1.953125l0 -1.71875zm4.84375 11.082336q2.6875 0 3.96875 1.484375q1.078125 1.25 1.078125 3.046875q0 2.0 -1.3125 3.265625q-1.296875 1.265625 -3.609375 1.265625q-1.859375 0 -2.9375 -0.5625q-1.0625 -0.5625 -1.65625 -1.640625q-0.59375 -1.0625 -0.59375 -2.328125q0 -2.03125 1.296875 -3.28125q1.3125 -1.25 3.765625 -1.25zm0 1.6875q-1.859375 0 -2.796875 0.796875q-0.921875 0.8125 -0.921875 2.046875q0 1.21875 0.921875 2.03125q0.9375 0.8125 2.84375 0.8125q1.796875 0 2.71875 -0.8125q0.921875 -0.8125 0.921875 -2.03125q0 -1.234375 -0.921875 -2.046875q-0.90625 -0.796875 -2.765625 -0.796875zm-4.84375 9.281952l9.671875 0l0 1.46875l-1.46875 0q1.03125 0.5625 1.359375 1.0312347q0.328125 0.484375 0.328125 1.0625q0 0.828125 -0.53125 1.6875l-1.515625 -0.5625q0.359375 -0.609375 0.359375 -1.203125q0 -0.546875 -0.328125 -0.96875q-0.328125 -0.42185974 -0.890625 -0.60935974q-0.875 -0.28125 -1.921875 -0.28125l-5.0625 0l0 -1.625zm0 6.2282867l13.359375 0l0 1.640625l-7.625 0l3.9375 3.890625l0 2.109375l-3.59375 -3.6875l-6.078125 4.0625l0 -2.015625l4.953125 -3.203125l-1.125 -1.15625l-3.828125 0l0 -1.640625z" fill-rule="nonzero"/><path fill="#000000" fill-opacity="0.0" d="m702.8793 48.13371l0 230.3622l-27.181091 0l0 -230.3622z" fill-rule="evenodd"/><path stroke="#666666" stroke-width="1.0" stroke-linejoin="round" stroke-linecap="butt" d="m702.8793 48.13371l0 230.3622l-27.181091 0l0 -230.3622z" fill-rule="evenodd"/><path fill="#666666" d="m686.6656 129.94328l0.140625 1.65625q-1.0 0.125 -1.640625 0.546875q-0.640625 0.4375 -1.046875 1.34375q-0.390625 0.921875 -0.390625 2.0625q0 1.0 0.296875 1.78125q0.296875 0.78125 0.8125 1.15625q0.53125 0.375 1.15625 0.375q0.625 0 1.09375 -0.375q0.46875 -0.359375 0.796875 -1.1875q0.203125 -0.546875 0.640625 -2.390625q0.453125 -1.828125 0.84375 -2.5625q0.5 -0.96875 1.234375 -1.4375q0.75 -0.46875 1.671875 -0.46875q1.0 0 1.875 0.578125q0.890625 0.578125 1.34375 1.671875q0.453125 1.109375 0.453125 2.453125q0 1.484375 -0.484375 2.609375q-0.46875 1.140625 -1.40625 1.75q-0.921875 0.609375 -2.09375 0.65625l-0.125 -1.6875q1.265625 -0.140625 1.90625 -0.9375q0.65625 -0.78125 0.65625 -2.3125q0 -1.609375 -0.59375 -2.34375q-0.59375 -0.734375 -1.421875 -0.734375q-0.71875 0 -1.171875 0.53125q-0.46875 0.5 -0.96875 2.65625q-0.484375 2.15625 -0.84375 2.953125q-0.53125 1.171875 -1.359375 1.71875q-0.828125 0.5625 -1.90625 0.5625q-1.0625 0 -2.015625 -0.609375q-0.9375 -0.609375 -1.46875 -1.75q-0.515625 -1.140625 -0.515625 -2.578125q0 -1.8125 0.53125 -3.046875q0.53125 -1.21875 1.59375 -1.921875q1.0625 -0.6875 2.40625 -0.71875zm0.546875 12.224823q2.6875 0 3.96875 1.484375q1.078125 1.25 1.078125 3.046875q0 2.0 -1.3125 3.265625q-1.296875 1.265625 -3.609375 1.265625q-1.859375 0 -2.9375 -0.5625q-1.0625 -0.5625 -1.65625 -1.640625q-0.59375 -1.0625 -0.59375 -2.328125q0 -2.03125 1.296875 -3.28125q1.3125 -1.25 3.765625 -1.25zm0 1.6875q-1.859375 0 -2.796875 0.796875q-0.921875 0.8125 -0.921875 2.046875q0 1.21875 0.921875 2.03125q0.9375 0.8125 2.84375 0.8125q1.796875 0 2.71875 -0.8125q0.921875 -0.8125 0.921875 -2.03125q0 -1.234375 -0.921875 -2.046875q-0.90625 -0.796875 -2.765625 -0.796875zm-4.84375 9.688217l8.40625 0l0 -1.453125l1.265625 0l0 1.453125l1.03125 0q0.96875 0 1.453125 0.171875q0.640625 0.234375 1.03125 0.828125q0.390625 0.59375 0.390625 1.671875q0 0.6875 -0.15625 1.53125l-1.4375 -0.25q0.09375 -0.5 0.09375 -0.953125q0 -0.75 -0.328125 -1.0625q-0.3125 -0.3125 -1.1875 -0.3125l-0.890625 0l0 1.890625l-1.265625 0l0 -1.890625l-8.40625 0l0 -1.625zm1.46875 8.370804l-1.453125 0.234375q-0.140625 -0.6875 -0.140625 -1.234375q0 -0.890625 0.28125 -1.390625q0.28125 -0.484375 0.734375 -0.6875q0.46875 -0.203125 1.9375 -0.203125l5.578125 0l0 -1.203125l1.265625 0l0 1.203125l2.390625 0l0.984375 1.625l-3.375 0l0 1.65625l-1.265625 0l0 -1.65625l-5.671875 0q-0.6875 0 -0.890625 0.078125q-0.203125 0.09375 -0.328125 0.28125q-0.109375 0.203125 -0.109375 0.578125q0 0.265625 0.0625 0.71875zm-1.46875 1.6051788l9.671875 0l0 1.46875l-1.359375 0q0.71875 0.453125 1.140625 1.203125q0.4375 0.765625 0.4375 1.71875q0 1.078125 -0.453125 1.765625q-0.4375 0.6875 -1.234375 0.96875q1.6875 1.15625 1.6875 2.984375q0 1.453125 -0.796875 2.21875q-0.796875 0.78126526 -2.453125 0.78126526l-6.640625 0l0 -1.6406403l6.09375 0q0.984375 0 1.40625 -0.15625q0.4375 -0.15625 0.703125 -0.578125q0.265625 -0.421875 0.265625 -0.984375q0 -1.015625 -0.6875 -1.6875q-0.671875 -0.671875 -2.15625 -0.671875l-5.625 0l0 -1.640625l6.28125 0q1.09375 0 1.640625 -0.40625q0.546875 -0.40625 0.546875 -1.3125q0 -0.6875 -0.359375 -1.28125q-0.359375 -0.59375 -1.0625 -0.859375q-0.703125 -0.25 -2.03125 -0.25l-5.015625 0l0 -1.640625zm1.1875 21.853317q-0.765625 -0.921875 -1.09375 -1.765625q-0.3125 -0.828125 -0.3125 -1.796875q0 -1.59375 0.78125 -2.453125q0.78125 -0.859375 1.984375 -0.859375q0.71875 0 1.296875 0.328125q0.59375 0.328125 0.9375 0.84375q0.359375 0.53125 0.546875 1.1875q0.125 0.46875 0.25 1.453125q0.234375 1.984375 0.5625 2.921875q0.34375 0.015625 0.421875 0.015625q1.0 0 1.421875 -0.46875q0.546875 -0.625 0.546875 -1.875q0 -1.15625 -0.40625 -1.703125q-0.40625 -0.546875 -1.421875 -0.8125l0.21875 -1.609375q1.015625 0.21875 1.640625 0.71875q0.640625 0.5 0.984375 1.453125q0.34375 0.953125 0.34375 2.1875q0 1.25 -0.296875 2.015625q-0.28125 0.78125 -0.734375 1.140625q-0.4375 0.375 -1.109375 0.515625q-0.421875 0.078125 -1.515625 0.078125l-2.1875 0q-2.28125 0 -2.890625 0.109375q-0.59375 0.109375 -1.15625 0.40625l0 -1.703125q0.515625 -0.265625 1.1875 -0.328125zm3.671875 -0.140625q-0.375 -0.890625 -0.625 -2.671875q-0.140625 -1.015625 -0.328125 -1.4375q-0.1875 -0.421875 -0.53125 -0.65625q-0.34375 -0.21875 -0.78125 -0.21875q-0.65625 0 -1.09375 0.5q-0.4375 0.5 -0.4375 1.453125q0 0.9375 0.40625 1.671875q0.421875 0.75 1.140625 1.09375q0.5625 0.265625 1.640625 0.265625l0.609375 0zm-4.859375 3.110077l5.03125 3.53125l4.640625 -3.265625l0 2.046875l-2.265625 1.484375q-0.640625 0.421875 -1.078125 0.671875q0.59375 0.40625 1.0625 0.734375l2.28125 1.640625l0 1.953125l-4.546875 -3.34375l-5.125 3.59375l0 -2.015625l3.0 -1.984375l0.8125 -0.515625l-3.8125 -2.546875l0 -1.984375z" fill-rule="nonzero"/><path fill="#000000" fill-opacity="0.0" d="m657.48004 163.3148l18.204712 0" fill-rule="evenodd"/><path stroke="#424242" stroke-width="1.0" stroke-linejoin="round" stroke-linecap="butt" d="m657.48004 163.3148l14.777649 0" fill-rule="evenodd"/><path fill="#424242" stroke="#424242" stroke-width="1.0" stroke-linecap="butt" d="m672.2577 163.3148l-1.1246338 1.124588l3.0897827 -1.124588l-3.0897827 -1.124588z" fill-rule="evenodd"/><path fill="#000000" fill-opacity="0.0" d="m702.8793 163.3148l18.236206 0.0315094" fill-rule="evenodd"/><path stroke="#424242" stroke-width="1.0" stroke-linejoin="round" stroke-linecap="butt" d="m702.8793 163.3148l14.809143 0.02558899" fill-rule="evenodd"/><path fill="#424242" stroke="#424242" stroke-width="1.0" stroke-linecap="butt" d="m717.6884 163.34038l-1.1265259 1.1226501l3.0916748 -1.1192474l-3.0878296 -1.1299133z" fill-rule="evenodd"/><path fill="#000000" fill-opacity="0.0" d="m721.1077 143.11725l158.5827 0l0 40.472443l-158.5827 0z" fill-rule="evenodd"/><path fill="#666666" d="m731.5452 170.27347l0 -13.359375l5.046875 0q1.328125 0 2.03125 0.125q0.96875 0.171875 1.640625 0.640625q0.671875 0.453125 1.078125 1.28125q0.40625 0.828125 0.40625 1.828125q0 1.703125 -1.09375 2.890625q-1.078125 1.171875 -3.921875 1.171875l-3.421875 0l0 5.421875l-1.765625 0zm1.765625 -7.0l3.453125 0q1.71875 0 2.4375 -0.640625q0.71875 -0.640625 0.71875 -1.796875q0 -0.84375 -0.421875 -1.4375q-0.421875 -0.59375 -1.125 -0.78125q-0.4375 -0.125 -1.640625 -0.125l-3.421875 0l0 4.78125zm10.4592285 7.0l0 -9.671875l1.46875 0l0 1.46875q0.5625 -1.03125 1.03125 -1.359375q0.484375 -0.328125 1.0625 -0.328125q0.828125 0 1.6875 0.53125l-0.5625 1.515625q-0.609375 -0.359375 -1.203125 -0.359375q-0.546875 0 -0.96875 0.328125q-0.421875 0.328125 -0.609375 0.890625q-0.28125 0.875 -0.28125 1.921875l0 5.0625l-1.625 0zm5.6188965 -4.84375q0 -2.6875 1.484375 -3.96875q1.25 -1.078125 3.046875 -1.078125q2.0 0 3.265625 1.3125q1.265625 1.296875 1.265625 3.609375q0 1.859375 -0.5625 2.9375q-0.5625 1.0625 -1.640625 1.65625q-1.0625 0.59375 -2.328125 0.59375q-2.03125 0 -3.28125 -1.296875q-1.25 -1.3125 -1.25 -3.765625zm1.6875 0q0 1.859375 0.796875 2.796875q0.8125 0.921875 2.046875 0.921875q1.21875 0 2.03125 -0.921875q0.8125 -0.9375 0.8125 -2.84375q0 -1.796875 -0.8125 -2.71875q-0.8125 -0.921875 -2.03125 -0.921875q-1.234375 0 -2.046875 0.921875q-0.796875 0.90625 -0.796875 2.765625zm10.797607 4.84375l-1.515625 0l0 -13.359375l1.640625 0l0 4.765625q1.046875 -1.296875 2.65625 -1.296875q0.890625 0 1.6875 0.359375q0.796875 0.359375 1.3125 1.015625q0.515625 0.640625 0.796875 1.5625q0.296875 0.921875 0.296875 1.96875q0 2.484375 -1.234375 3.84375q-1.21875 1.359375 -2.953125 1.359375q-1.703125 0 -2.6875 -1.4375l0 1.21875zm-0.015625 -4.90625q0 1.734375 0.484375 2.515625q0.765625 1.265625 2.09375 1.265625q1.078125 0 1.859375 -0.9375q0.78125 -0.9375 0.78125 -2.78125q0 -1.890625 -0.75 -2.796875q-0.75 -0.90625 -1.828125 -0.90625q-1.0625 0 -1.859375 0.9375q-0.78125 0.9375 -0.78125 2.703125zm15.203857 3.71875q-0.921875 0.765625 -1.765625 1.09375q-0.828125 0.3125 -1.796875 0.3125q-1.59375 0 -2.453125 -0.78125q-0.859375 -0.78125 -0.859375 -1.984375q0 -0.71875 0.328125 -1.296875q0.328125 -0.59375 0.84375 -0.9375q0.53125 -0.359375 1.1875 -0.546875q0.46875 -0.125 1.453125 -0.25q1.984375 -0.234375 2.921875 -0.5625q0.015625 -0.34375 0.015625 -0.421875q0 -1.0 -0.46875 -1.421875q-0.625 -0.546875 -1.875 -0.546875q-1.15625 0 -1.703125 0.40625q-0.546875 0.40625 -0.8125 1.421875l-1.609375 -0.21875q0.21875 -1.015625 0.71875 -1.640625q0.5 -0.640625 1.453125 -0.984375q0.953125 -0.34375 2.1875 -0.34375q1.25 0 2.015625 0.296875q0.78125 0.28125 1.140625 0.734375q0.375 0.4375 0.515625 1.109375q0.078125 0.421875 0.078125 1.515625l0 2.1875q0 2.28125 0.109375 2.890625q0.109375 0.59375 0.40625 1.15625l-1.703125 0q-0.265625 -0.515625 -0.328125 -1.1875zm-0.140625 -3.671875q-0.890625 0.375 -2.671875 0.625q-1.015625 0.140625 -1.4375 0.328125q-0.421875 0.1875 -0.65625 0.53125q-0.21875 0.34375 -0.21875 0.78125q0 0.65625 0.5 1.09375q0.5 0.4375 1.453125 0.4375q0.9375 0 1.671875 -0.40625q0.75 -0.421875 1.09375 -1.140625q0.265625 -0.5625 0.265625 -1.640625l0 -0.609375zm5.7037964 4.859375l-1.515625 0l0 -13.359375l1.640625 0l0 4.765625q1.046875 -1.296875 2.65625 -1.296875q0.890625 0 1.6875 0.359375q0.796875 0.359375 1.3125 1.015625q0.515625 0.640625 0.796875 1.5625q0.296875 0.921875 0.296875 1.96875q0 2.484375 -1.234375 3.84375q-1.21875 1.359375 -2.953125 1.359375q-1.703125 0 -2.6875 -1.4375l0 1.21875zm-0.015625 -4.90625q0 1.734375 0.484375 2.515625q0.765625 1.265625 2.09375 1.265625q1.078125 0 1.859375 -0.9375q0.78125 -0.9375 0.78125 -2.78125q0 -1.890625 -0.75 -2.796875q-0.75 -0.90625 -1.828125 -0.90625q-1.0625 0 -1.859375 0.9375q-0.78125 0.9375 -0.78125 2.703125zm8.891357 -6.5625l0 -1.890625l1.640625 0l0 1.890625l-1.640625 0zm0 11.46875l0 -9.671875l1.640625 0l0 9.671875l-1.640625 0zm4.0979614 0l0 -13.359375l1.640625 0l0 13.359375l-1.640625 0zm4.1917114 -11.46875l0 -1.890625l1.640625 0l0 1.890625l-1.640625 0zm0 11.46875l0 -9.671875l1.640625 0l0 9.671875l-1.640625 0zm7.7229004 -1.46875l0.234375 1.453125q-0.6875 0.140625 -1.234375 0.140625q-0.890625 0 -1.390625 -0.28125q-0.484375 -0.28125 -0.6875 -0.734375q-0.203125 -0.46875 -0.203125 -1.9375l0 -5.578125l-1.203125 0l0 -1.265625l1.203125 0l0 -2.390625l1.625 -0.984375l0 3.375l1.65625 0l0 1.265625l-1.65625 0l0 5.671875q0 0.6875 0.078125 0.890625q0.09375 0.203125 0.28125 0.328125q0.203125 0.109375 0.578125 0.109375q0.265625 0 0.71875 -0.0625zm1.6052246 -10.0l0 -1.890625l1.640625 0l0 1.890625l-1.640625 0zm0 11.46875l0 -9.671875l1.640625 0l0 9.671875l-1.640625 0zm10.769775 -3.109375l1.6875 0.203125q-0.40625 1.484375 -1.484375 2.3125q-1.078125 0.8125 -2.765625 0.8125q-2.125 0 -3.375 -1.296875q-1.234375 -1.3125 -1.234375 -3.671875q0 -2.453125 1.25 -3.796875q1.265625 -1.34375 3.265625 -1.34375q1.9375 0 3.15625 1.328125q1.234375 1.3125 1.234375 3.703125q0 0.15625 0 0.4375l-7.21875 0q0.09375 1.59375 0.90625 2.453125q0.8125 0.84375 2.015625 0.84375q0.90625 0 1.546875 -0.46875q0.640625 -0.484375 1.015625 -1.515625zm-5.390625 -2.65625l5.40625 0q-0.109375 -1.21875 -0.625 -1.828125q-0.78125 -0.953125 -2.03125 -0.953125q-1.125 0 -1.90625 0.765625q-0.765625 0.75 -0.84375 2.015625zm8.485107 2.875l1.625 -0.25q0.125 0.96875 0.75 1.5q0.625 0.515625 1.75 0.515625q1.125 0 1.671875 -0.453125q0.546875 -0.46875 0.546875 -1.09375q0 -0.546875 -0.484375 -0.875q-0.328125 -0.21875 -1.671875 -0.546875q-1.8125 -0.46875 -2.515625 -0.796875q-0.6875 -0.328125 -1.046875 -0.90625q-0.359375 -0.59375 -0.359375 -1.3125q0 -0.640625 0.296875 -1.1875q0.296875 -0.5625 0.8125 -0.921875q0.375 -0.28125 1.03125 -0.46875q0.671875 -0.203125 1.421875 -0.203125q1.140625 0 2.0 0.328125q0.859375 0.328125 1.265625 0.890625q0.421875 0.5625 0.578125 1.5l-1.609375 0.21875q-0.109375 -0.75 -0.640625 -1.171875q-0.515625 -0.421875 -1.46875 -0.421875q-1.140625 0 -1.625 0.375q-0.46875 0.375 -0.46875 0.875q0 0.3125 0.1875 0.578125q0.203125 0.265625 0.640625 0.4375q0.234375 0.09375 1.4375 0.421875q1.75 0.453125 2.4375 0.75q0.6875 0.296875 1.078125 0.859375q0.390625 0.5625 0.390625 1.40625q0 0.828125 -0.484375 1.546875q-0.46875 0.71875 -1.375 1.125q-0.90625 0.390625 -2.046875 0.390625q-1.875 0 -2.875 -0.78125q-0.984375 -0.78125 -1.25 -2.328125z" fill-rule="nonzero"/><path fill="#000000" fill-opacity="0.0" d="m620.2306 -40.180214l-0.31500244 456.50394" fill-rule="evenodd"/><path stroke="#d9d9d9" stroke-width="1.0" stroke-linejoin="round" stroke-linecap="butt" stroke-dasharray="4.0,3.0" d="m620.2306 -40.180214l-0.31500244 456.50394" fill-rule="evenodd"/><path fill="#000000" fill-opacity="0.0" d="m644.90625 318.71844l171.4646 0l0 42.078735l-171.4646 0z" fill-rule="evenodd"/><path fill="#cccccc" d="m703.2518 340.95096l1.765625 0.453125q-0.5625 2.171875 -2.0 3.328125q-1.4375 1.140625 -3.53125 1.140625q-2.15625 0 -3.515625 -0.875q-1.34375 -0.890625 -2.0625 -2.546875q-0.703125 -1.671875 -0.703125 -3.59375q0 -2.078125 0.796875 -3.625q0.796875 -1.5625 2.265625 -2.359375q1.484375 -0.8125 3.25 -0.8125q2.0 0 3.359375 1.015625q1.375 1.015625 1.90625 2.875l-1.734375 0.40625q-0.46875 -1.453125 -1.359375 -2.109375q-0.875 -0.671875 -2.203125 -0.671875q-1.546875 0 -2.578125 0.734375q-1.03125 0.734375 -1.453125 1.984375q-0.421875 1.234375 -0.421875 2.5625q0 1.703125 0.5 2.96875q0.5 1.265625 1.546875 1.90625q1.046875 0.625 2.265625 0.625q1.484375 0 2.515625 -0.859375q1.03125 -0.859375 1.390625 -2.546875zm3.6916504 4.6875l0 -13.359375l1.640625 0l0 13.359375l-1.640625 0zm10.504211 -1.1875q-0.921875 0.765625 -1.765625 1.09375q-0.828125 0.3125 -1.796875 0.3125q-1.59375 0 -2.453125 -0.78125q-0.859375 -0.78125 -0.859375 -1.984375q0 -0.71875 0.328125 -1.296875q0.328125 -0.59375 0.84375 -0.9375q0.53125 -0.359375 1.1875 -0.546875q0.46875 -0.125 1.453125 -0.25q1.984375 -0.234375 2.921875 -0.5625q0.015625 -0.34375 0.015625 -0.421875q0 -1.0 -0.46875 -1.421875q-0.625 -0.546875 -1.875 -0.546875q-1.15625 0 -1.703125 0.40625q-0.546875 0.40625 -0.8125 1.421875l-1.609375 -0.21875q0.21875 -1.015625 0.71875 -1.640625q0.5 -0.640625 1.453125 -0.984375q0.953125 -0.34375 2.1875 -0.34375q1.25 0 2.015625 0.296875q0.78125 0.28125 1.140625 0.734375q0.375 0.4375 0.515625 1.109375q0.078125 0.421875 0.078125 1.515625l0 2.1875q0 2.28125 0.109375 2.890625q0.109375 0.59375 0.40625 1.15625l-1.703125 0q-0.265625 -0.515625 -0.328125 -1.1875zm-0.140625 -3.671875q-0.890625 0.375 -2.671875 0.625q-1.015625 0.140625 -1.4375 0.328125q-0.421875 0.1875 -0.65625 0.53125q-0.21875 0.34375 -0.21875 0.78125q0 0.65625 0.5 1.09375q0.5 0.4375 1.453125 0.4375q0.9375 0 1.671875 -0.40625q0.75 -0.421875 1.09375 -1.140625q0.265625 -0.5625 0.265625 -1.640625l0 -0.609375zm3.5476074 1.96875l1.625 -0.25q0.125 0.96875 0.75 1.5q0.625 0.515625 1.75 0.515625q1.125 0 1.671875 -0.453125q0.546875 -0.46875 0.546875 -1.09375q0 -0.546875 -0.484375 -0.875q-0.328125 -0.21875 -1.671875 -0.546875q-1.8125 -0.46875 -2.515625 -0.796875q-0.6875 -0.328125 -1.046875 -0.90625q-0.359375 -0.59375 -0.359375 -1.3125q0 -0.640625 0.296875 -1.1875q0.296875 -0.5625 0.8125 -0.921875q0.375 -0.28125 1.03125 -0.46875q0.671875 -0.203125 1.421875 -0.203125q1.140625 0 2.0 0.328125q0.859375 0.328125 1.265625 0.890625q0.421875 0.5625 0.578125 1.5l-1.609375 0.21875q-0.109375 -0.75 -0.640625 -1.171875q-0.515625 -0.421875 -1.46875 -0.421875q-1.140625 0 -1.625 0.375q-0.46875 0.375 -0.46875 0.875q0 0.3125 0.1875 0.578125q0.203125 0.265625 0.640625 0.4375q0.234375 0.09375 1.4375 0.421875q1.75 0.453125 2.4375 0.75q0.6875 0.296875 1.078125 0.859375q0.390625 0.5625 0.390625 1.40625q0 0.828125 -0.484375 1.546875q-0.46875 0.71875 -1.375 1.125q-0.90625 0.390625 -2.046875 0.390625q-1.875 0 -2.875 -0.78125q-0.984375 -0.78125 -1.25 -2.328125zm9.328125 0l1.625 -0.25q0.125 0.96875 0.75 1.5q0.625 0.515625 1.75 0.515625q1.125 0 1.671875 -0.453125q0.546875 -0.46875 0.546875 -1.09375q0 -0.546875 -0.484375 -0.875q-0.328125 -0.21875 -1.671875 -0.546875q-1.8125 -0.46875 -2.515625 -0.796875q-0.6875 -0.328125 -1.046875 -0.90625q-0.359375 -0.59375 -0.359375 -1.3125q0 -0.640625 0.296875 -1.1875q0.296875 -0.5625 0.8125 -0.921875q0.375 -0.28125 1.03125 -0.46875q0.671875 -0.203125 1.421875 -0.203125q1.140625 0 2.0 0.328125q0.859375 0.328125 1.265625 0.890625q0.421875 0.5625 0.578125 1.5l-1.609375 0.21875q-0.109375 -0.75 -0.640625 -1.171875q-0.515625 -0.421875 -1.46875 -0.421875q-1.140625 0 -1.625 0.375q-0.46875 0.375 -0.46875 0.875q0 0.3125 0.1875 0.578125q0.203125 0.265625 0.640625 0.4375q0.234375 0.09375 1.4375 0.421875q1.75 0.453125 2.4375 0.75q0.6875 0.296875 1.078125 0.859375q0.390625 0.5625 0.390625 1.40625q0 0.828125 -0.484375 1.546875q-0.46875 0.71875 -1.375 1.125q-0.90625 0.390625 -2.046875 0.390625q-1.875 0 -2.875 -0.78125q-0.984375 -0.78125 -1.25 -2.328125zm9.984375 -8.578125l0 -1.890625l1.640625 0l0 1.890625l-1.640625 0zm0 11.46875l0 -9.671875l1.640625 0l0 9.671875l-1.640625 0zm4.5354614 0l0 -8.40625l-1.453125 0l0 -1.265625l1.453125 0l0 -1.03125q0 -0.96875 0.171875 -1.453125q0.234375 -0.640625 0.828125 -1.03125q0.59375 -0.390625 1.671875 -0.390625q0.6875 0 1.53125 0.15625l-0.25 1.4375q-0.5 -0.09375 -0.953125 -0.09375q-0.75 0 -1.0625 0.328125q-0.3125 0.3125 -0.3125 1.1875l0 0.890625l1.890625 0l0 1.265625l-1.890625 0l0 8.40625l-1.625 0zm4.7926636 -11.46875l0 -1.890625l1.640625 0l0 1.890625l-1.640625 0zm0 11.46875l0 -9.671875l1.640625 0l0 9.671875l-1.640625 0zm10.769836 -3.109375l1.6875 0.203125q-0.40625 1.484375 -1.484375 2.3125q-1.078125 0.8125 -2.765625 0.8125q-2.125 0 -3.375 -1.296875q-1.234375 -1.3125 -1.234375 -3.671875q0 -2.453125 1.25 -3.796875q1.265625 -1.34375 3.265625 -1.34375q1.9375 0 3.15625 1.328125q1.234375 1.3125 1.234375 3.703125q0 0.15625 0 0.4375l-7.21875 0q0.09375 1.59375 0.90625 2.453125q0.8125 0.84375 2.015625 0.84375q0.90625 0 1.546875 -0.46875q0.640625 -0.484375 1.015625 -1.515625zm-5.390625 -2.65625l5.40625 0q-0.109375 -1.21875 -0.625 -1.828125q-0.78125 -0.953125 -2.03125 -0.953125q-1.125 0 -1.90625 0.765625q-0.765625 0.75 -0.84375 2.015625zm9.125671 5.765625l0 -9.671875l1.46875 0l0 1.46875q0.5625 -1.03125 1.03125 -1.359375q0.484375 -0.328125 1.0625 -0.328125q0.828125 0 1.6875 0.53125l-0.5625 1.515625q-0.609375 -0.359375 -1.203125 -0.359375q-0.546875 0 -0.96875 0.328125q-0.421875 0.328125 -0.609375 0.890625q-0.28125 0.875 -0.28125 1.921875l0 5.0625l-1.625 0z" fill-rule="nonzero"/><path fill="#000000" fill-opacity="0.0" d="m152.11441 78.11847l35.905502 0.18897247" fill-rule="evenodd"/><path stroke="#424242" stroke-width="1.0" stroke-linejoin="round" stroke-linecap="butt" d="m152.11441 78.11846l32.478455 0.17093658" fill-rule="evenodd"/><path fill="#424242" stroke="#424242" stroke-width="1.0" stroke-linecap="butt" d="m184.59286 78.289406l-1.1304779 1.1186447l3.095642 -1.1083069l-3.0838013 -1.1408234z" fill-rule="evenodd"/><path fill="#000000" fill-opacity="0.0" d="m152.11436 163.0346l34.645676 0.15748596" fill-rule="evenodd"/><path stroke="#424242" stroke-width="1.0" stroke-linejoin="round" stroke-linecap="butt" d="m152.11436 163.0346l31.218613 0.14190674" fill-rule="evenodd"/><path fill="#424242" stroke="#424242" stroke-width="1.0" stroke-linecap="butt" d="m183.33298 163.17651l-1.1296844 1.119461l3.0948486 -1.1105194l-3.0846252 -1.1386261z" fill-rule="evenodd"/><path fill="#000000" fill-opacity="0.0" d="m151.50046 248.18878l36.472443 -0.3779602" fill-rule="evenodd"/><path stroke="#424242" stroke-width="1.0" stroke-linejoin="round" stroke-linecap="butt" d="m151.50046 248.18877l33.045532 -0.34243774" fill-rule="evenodd"/><path fill="#424242" stroke="#424242" stroke-width="1.0" stroke-linecap="butt" d="m184.54599 247.84633l-1.1128693 1.1361847l3.077942 -1.1565399l-3.101242 -1.092514z" fill-rule="evenodd"/><path fill="#000000" fill-opacity="0.0" d="m5.975116 155.48058l0 0c0 -2.1425018 1.7368412 -3.8793335 3.879343 -3.8793335l137.50116 0c1.0288544 0 2.0155792 0.40870667 2.743103 1.1362305c0.7275238 0.7275238 1.1362305 1.7142487 1.1362305 2.743103l0 15.516907c0 2.1425018 -1.7368317 3.8793488 -3.8793335 3.8793488l-137.50116 0c-2.1425018 0 -3.879343 -1.7368469 -3.879343 -3.8793488z" fill-rule="evenodd"/><path stroke="#666666" stroke-width="2.0" stroke-linejoin="round" stroke-linecap="butt" d="m5.975116 155.48058l0 0c0 -2.1425018 1.7368412 -3.8793335 3.879343 -3.8793335l137.50116 0c1.0288544 0 2.0155792 0.40870667 2.743103 1.1362305c0.7275238 0.7275238 1.1362305 1.7142487 1.1362305 2.743103l0 15.516907c0 2.1425018 -1.7368317 3.8793488 -3.8793335 3.8793488l-137.50116 0c-2.1425018 0 -3.879343 -1.7368469 -3.879343 -3.8793488z" fill-rule="evenodd"/><path fill="#000000" d="m34.028866 170.16528l-2.890625 0l0 -10.890625l2.890625 0l0 0.8125l-1.90625 0l0 9.25l1.90625 0l0 0.828125zm7.7226562 -4.5625l-1.296875 0l-0.21875 2.15625l-0.875 0l0.21875 -2.15625l-1.484375 0l-0.21875 2.15625l-0.875 0l0.21875 -2.15625l-1.25 0l0 -0.75l1.328125 0l0.203125 -2.0625l-1.234375 0l0 -0.75l1.3125 0l0.203125 -1.9375l0.859375 0l-0.203125 1.9375l1.5 0l0.203125 -1.9375l0.875 0l-0.203125 1.9375l1.25 0l0 0.75l-1.328125 0l-0.203125 2.0625l1.21875 0l0 0.75zm-2.09375 -0.75l0.21875 -2.0625l-1.5 0l-0.21875 2.0625l1.5 0zm8.753906 -3.859375l-2.265625 0l0 6.765625l-1.0625 0l0 -6.765625l-2.265625 0l0 -0.890625l5.59375 0l0 0.890625zm6.6601562 6.765625l-1.171875 0l-1.140625 -2.453125q-0.140625 -0.28125 -0.28125 -0.453125q-0.125 -0.1875 -0.28125 -0.296875q-0.15625 -0.109375 -0.34375 -0.15625q-0.171875 -0.046875 -0.40625 -0.046875l-0.484375 0l0 3.40625l-1.046875 0l0 -7.65625l2.046875 0q0.671875 0 1.140625 0.15625q0.484375 0.140625 0.796875 0.40625q0.3125 0.25 0.453125 0.625q0.140625 0.375 0.140625 0.828125q0 0.359375 -0.109375 0.6875q-0.09375 0.3125 -0.3125 0.578125q-0.203125 0.25 -0.515625 0.4375q-0.296875 0.1875 -0.703125 0.28125q0.328125 0.109375 0.546875 0.390625q0.234375 0.28125 0.46875 0.75l1.203125 2.515625zm-1.671875 -5.5625q0 -0.609375 -0.390625 -0.90625q-0.375 -0.3125 -1.0625 -0.3125l-0.984375 0l0 2.53125l0.84375 0q0.359375 0 0.65625 -0.078125q0.296875 -0.09375 0.5 -0.25q0.21875 -0.171875 0.328125 -0.40625q0.109375 -0.25 0.109375 -0.578125zm4.8789062 -1.21875l-1.75 0l0 -0.875l4.578125 0l0 0.875l-1.765625 0l0 5.890625l1.765625 0l0 0.890625l-4.578125 0l0 -0.890625l1.75 0l0 -5.890625zm9.72266 0.4375q-0.421875 -0.234375 -0.875 -0.359375q-0.453125 -0.125 -0.984375 -0.125q-0.609375 0 -1.09375 0.21875q-0.46875 0.21875 -0.796875 0.609375q-0.3125038 0.390625 -0.4843788 0.953125q-0.171875 0.5625 -0.171875 1.234375q0 0.703125 0.140625 1.265625q0.140625 0.546875 0.4375038 0.9375q0.296875 0.390625 0.75 0.59375q0.46875 0.203125 1.125 0.203125q0.109375 0 0.234375 -0.015625q0.140625 -0.015625 0.265625 -0.03125q0.125 -0.015625 0.25 -0.046875q0.125 -0.03125 0.21875 -0.0625l0 -2.4375l-1.578125 0l0 -0.859375l2.609375 0l0 3.90625q-0.25 0.109375 -0.515625 0.203125q-0.265625 0.078125 -0.546875 0.140625q-0.28125 0.0625 -0.5625 0.09375q-0.265625 0.03125 -0.515625 0.03125q-0.796875 0 -1.421875 -0.25q-0.6250038 -0.25 -1.0781288 -0.734375q-0.4375 -0.484375 -0.671875 -1.203125q-0.234375 -0.71875 -0.234375 -1.671875q0 -0.9375 0.265625 -1.6875q0.265625 -0.75 0.734375 -1.265625q0.484375 -0.515625 1.1562538 -0.78125q0.671875 -0.28125 1.46875 -0.28125q0.515625 0 0.984375 0.09375q0.46875 0.09375 0.890625 0.28125l0 1.046875zm6.5976486 0q-0.421875 -0.234375 -0.875 -0.359375q-0.453125 -0.125 -0.984375 -0.125q-0.609375 0 -1.09375 0.21875q-0.46875 0.21875 -0.7968674 0.609375q-0.3125 0.390625 -0.484375 0.953125q-0.171875 0.5625 -0.171875 1.234375q0 0.703125 0.140625 1.265625q0.140625 0.546875 0.4375 0.9375q0.296875 0.390625 0.7499924 0.59375q0.46875 0.203125 1.125 0.203125q0.109375 0 0.234375 -0.015625q0.140625 -0.015625 0.265625 -0.03125q0.125 -0.015625 0.25 -0.046875q0.125 -0.03125 0.21875 -0.0625l0 -2.4375l-1.578125 0l0 -0.859375l2.609375 0l0 3.90625q-0.25 0.109375 -0.515625 0.203125q-0.265625 0.078125 -0.546875 0.140625q-0.28125 0.0625 -0.5625 0.09375q-0.265625 0.03125 -0.515625 0.03125q-0.796875 0 -1.4218674 -0.25q-0.625 -0.25 -1.078125 -0.734375q-0.4375 -0.484375 -0.671875 -1.203125q-0.234375 -0.71875 -0.234375 -1.671875q0 -0.9375 0.265625 -1.6875q0.265625 -0.75 0.734375 -1.265625q0.484375 -0.515625 1.1562424 -0.78125q0.671875 -0.28125 1.46875 -0.28125q0.515625 0 0.984375 0.09375q0.46875 0.09375 0.890625 0.28125l0 1.046875zm6.2382812 6.34375l-4.359375 0l0 -7.65625l4.359375 0l0 0.875l-3.3125 0l0 2.375l3.1875 0l0 0.875l-3.1875 0l0 2.640625l3.3125 0l0 0.890625zm7.2226562 0l-1.171875 0l-1.140625 -2.453125q-0.140625 -0.28125 -0.28125 -0.453125q-0.125 -0.1875 -0.28125 -0.296875q-0.15625 -0.109375 -0.34375 -0.15625q-0.171875 -0.046875 -0.40625 -0.046875l-0.484375 0l0 3.40625l-1.046875 0l0 -7.65625l2.046875 0q0.671875 0 1.140625 0.15625q0.484375 0.140625 0.796875 0.40625q0.3125 0.25 0.453125 0.625q0.140625 0.375 0.140625 0.828125q0 0.359375 -0.109375 0.6875q-0.09375 0.3125 -0.3125 0.578125q-0.203125 0.25 -0.515625 0.4375q-0.296875 0.1875 -0.703125 0.28125q0.328125 0.109375 0.546875 0.390625q0.234375 0.28125 0.46875 0.75l1.203125 2.515625zm-1.671875 -5.5625q0 -0.609375 -0.390625 -0.90625q-0.375 -0.3125 -1.0625 -0.3125l-0.984375 0l0 2.53125l0.84375 0q0.359375 0 0.65625 -0.078125q0.296875 -0.09375 0.5 -0.25q0.21875 -0.171875 0.328125 -0.40625q0.109375 -0.25 0.109375 -0.578125zm8.441406 -2.09375l-0.515625 7.65625l-1.34375 0l-0.953125 -2.71875l-0.265625 -0.875l-0.265625 0.9375l-0.890625 2.65625l-1.296875 0l-0.53125 -7.65625l0.984375 0l0.296875 5.203125l0.09375 1.4375l0.359375 -1.21875l0.9375 -2.84375l0.71875 0l1.0625 3.046875l0.359375 1.015625l0.015625 -1.0625l0.3125 -5.578125l0.921875 0zm6.5507812 3.78125q0 1.03125 -0.25 1.78125q-0.234375 0.75 -0.65625 1.234375q-0.40625 0.484375 -0.96875 0.734375q-0.546875 0.234375 -1.171875 0.234375q-0.734375 0 -1.28125 -0.265625q-0.546875 -0.265625 -0.90625 -0.765625q-0.359375 -0.515625 -0.546875 -1.234375q-0.171875 -0.734375 -0.171875 -1.640625q0 -1.015625 0.234375 -1.765625q0.25 -0.75 0.65625 -1.234375q0.421875 -0.5 0.96875 -0.734375q0.5625 -0.234375 1.171875 -0.234375q0.734375 0 1.28125 0.28125q0.546875 0.265625 0.90625 0.765625q0.375 0.5 0.546875 1.21875q0.1875 0.71875 0.1875 1.625zm-1.09375 0.078125q0 -0.6875 -0.109375 -1.234375q-0.09375 -0.5625 -0.328125 -0.96875q-0.21875 -0.40625 -0.578125 -0.625q-0.359375 -0.21875 -0.875 -0.21875q-0.484375 0 -0.84375 0.234375q-0.359375 0.234375 -0.59375 0.640625q-0.21875 0.40625 -0.328125 0.953125q-0.109375 0.546875 -0.109375 1.171875q0 0.671875 0.09375 1.234375q0.109375 0.5625 0.328125 0.96875q0.234375 0.390625 0.59375 0.625q0.359375 0.21875 0.859375 0.21875q0.5 0 0.84375 -0.234375q0.359375 -0.25 0.59375 -0.65625q0.234375 -0.40625 0.34375 -0.953125q0.109375 -0.546875 0.109375 -1.15625zm7.5664062 3.796875l-1.171875 0l-1.140625 -2.453125q-0.140625 -0.28125 -0.28125 -0.453125q-0.125 -0.1875 -0.28125 -0.296875q-0.15625 -0.109375 -0.34375 -0.15625q-0.171875 -0.046875 -0.40625 -0.046875l-0.484375 0l0 3.40625l-1.046875 0l0 -7.65625l2.046875 0q0.671875 0 1.140625 0.15625q0.484375 0.140625 0.796875 0.40625q0.3125 0.25 0.453125 0.625q0.140625 0.375 0.140625 0.828125q0 0.359375 -0.109375 0.6875q-0.09375 0.3125 -0.3125 0.578125q-0.203125 0.25 -0.515625 0.4375q-0.296875 0.1875 -0.703125 0.28125q0.328125 0.109375 0.546875 0.390625q0.234375 0.28125 0.46875 0.75l1.203125 2.515625zm-1.671875 -5.5625q0 -0.609375 -0.390625 -0.90625q-0.375 -0.3125 -1.0625 -0.3125l-0.984375 0l0 2.53125l0.84375 0q0.359375 0 0.65625 -0.078125q0.296875 -0.09375 0.5 -0.25q0.21875 -0.171875 0.328125 -0.40625q0.109375 -0.25 0.109375 -0.578125zm8.285156 1.640625q0 0.5625 -0.09375 1.0625q-0.078125 0.5 -0.265625 0.9375q-0.1875 0.4375 -0.484375 0.796875q-0.296875 0.34375 -0.734375 0.59375q-0.4375 0.25 -1.015625 0.390625q-0.5625 0.140625 -1.296875 0.140625l-1.640625 0l0 -7.65625l1.96875 0q1.796875 0 2.671875 0.921875q0.890625 0.921875 0.890625 2.8125zm-1.09375 0.078125q0 -0.8125 -0.15625 -1.375q-0.15625 -0.5625 -0.46875 -0.90625q-0.296875 -0.34375 -0.765625 -0.5q-0.46875 -0.15625 -1.109375 -0.15625l-0.890625 0l0 5.875l0.78125 0q2.609375 0 2.609375 -2.9375zm7.5507812 1.6875l-1.296875 0l-0.21875 2.15625l-0.875 0l0.21875 -2.15625l-1.484375 0l-0.21875 2.15625l-0.875 0l0.21875 -2.15625l-1.25 0l0 -0.75l1.328125 0l0.203125 -2.0625l-1.234375 0l0 -0.75l1.3125 0l0.203125 -1.9375l0.859375 0l-0.203125 1.9375l1.5 0l0.203125 -1.9375l0.875 0l-0.203125 1.9375l1.25 0l0 0.75l-1.328125 0l-0.203125 2.0625l1.21875 0l0 0.75zm-2.09375 -0.75l0.21875 -2.0625l-1.5 0l-0.21875 2.0625l1.5 0zm7.2382812 5.3125l-2.890625 0l0 -0.828125l1.90625 0l0 -9.25l-1.90625 0l0 -0.8125l2.890625 0l0 10.890625z" fill-rule="nonzero"/><path fill="#000000" fill-opacity="0.0" d="m5.975116 70.72719l0 0c0 -2.1425018 1.7368412 -3.8793411 3.879343 -3.8793411l137.50116 0c1.0288544 0 2.0155792 0.4087143 2.743103 1.1362305c0.7275238 0.7275162 1.1362305 1.714241 1.1362305 2.7431107l0 15.516907c0 2.1425018 -1.7368317 3.8793411 -3.8793335 3.8793411l-137.50116 0c-2.1425018 0 -3.879343 -1.7368393 -3.879343 -3.8793411z" fill-rule="evenodd"/><path stroke="#666666" stroke-width="2.0" stroke-linejoin="round" stroke-linecap="butt" d="m5.975116 70.72719l0 0c0 -2.1425018 1.7368412 -3.8793411 3.879343 -3.8793411l137.50116 0c1.0288544 0 2.0155792 0.4087143 2.743103 1.1362305c0.7275238 0.7275162 1.1362305 1.714241 1.1362305 2.7431107l0 15.516907c0 2.1425018 -1.7368317 3.8793411 -3.8793335 3.8793411l-137.50116 0c-2.1425018 0 -3.879343 -1.7368393 -3.879343 -3.8793411z" fill-rule="evenodd"/><path fill="#000000" d="m68.175354 76.22439l-1.75 0l0 -0.875l4.578125 0l0 0.875l-1.765625 0l0 5.890625l1.765625 0l0 0.890625l-4.578125 0l0 -0.890625l1.75 0l0 -5.890625zm9.503899 6.703125q-0.34375 0.078125 -0.71875 0.109375q-0.359375 0.046875 -0.734375 0.046875q-1.109375 0 -1.65625 -0.5q-0.546875 -0.5 -0.546875 -1.53125l0 -3.078125l-1.640625 0l0 -0.859375l1.640625 0l0 -1.609375l1.015625 -0.265625l0 1.875l2.640625 0l0 0.859375l-2.640625 0l0 2.984375q0 0.640625 0.328125 0.953125q0.34375 0.3125 1.0 0.3125q0.28125 0 0.609375 -0.046875q0.34375 -0.046875 0.703125 -0.140625l0 0.890625zm2.3164062 -5.1875q0.296875 0.015625 0.578125 -0.046875q0.28125 -0.0625 0.5 -0.1875q0.21875 -0.125 0.34375 -0.3125q0.125 -0.1875 0.125 -0.4375q0 -0.25 -0.09375 -0.390625q-0.078125 -0.15625 -0.1875 -0.28125q-0.09375 -0.140625 -0.1875 -0.28125q-0.078125 -0.15625 -0.078125 -0.390625q0 -0.125 0.046875 -0.25q0.046875 -0.140625 0.140625 -0.25q0.09375 -0.109375 0.25 -0.171875q0.15625 -0.078125 0.359375 -0.078125q0.203125 0 0.390625 0.078125q0.1875 0.078125 0.328125 0.265625q0.15625 0.171875 0.234375 0.4375q0.078125 0.25 0.078125 0.609375q0 0.484375 -0.171875 0.9375q-0.171875 0.453125 -0.53125 0.796875q-0.359375 0.34375 -0.890625 0.546875q-0.53125 0.203125 -1.234375 0.203125l0 -0.796875zm10.800781 3.65625q0 0.3125 -0.109375 0.5625q-0.09375 0.25 -0.28125 0.4375q-0.1875 0.1875 -0.421875 0.328125q-0.234375 0.125 -0.515625 0.21875q-0.265625 0.09375 -0.5625 0.125q-0.28125 0.046875 -0.5625 0.046875q-0.59375 0 -1.09375 -0.0625q-0.5 -0.046875 -0.984375 -0.171875l0 -0.9375q0.515625 0.15625 1.03125 0.234375q0.515625 0.078125 1.015625 0.078125q0.734375 0 1.078125 -0.203125q0.359375 -0.203125 0.359375 -0.578125q0 -0.15625 -0.0625 -0.28125q-0.046875 -0.125 -0.203125 -0.234375q-0.140625 -0.109375 -0.453125 -0.234375q-0.3125 -0.125 -0.84375 -0.28125q-0.390625 -0.125 -0.734375 -0.265625q-0.328125 -0.15625 -0.578125 -0.359375q-0.25 -0.203125 -0.390625 -0.46875q-0.140625 -0.28125 -0.140625 -0.65625q0 -0.25 0.109375 -0.546875q0.125 -0.296875 0.390625 -0.546875q0.28125 -0.25 0.75 -0.40625q0.46875 -0.171875 1.171875 -0.171875q0.34375 0 0.765625 0.046875q0.421875 0.03125 0.875 0.125l0 0.90625q-0.46875 -0.125 -0.90625 -0.171875q-0.421875 -0.0625 -0.75 -0.0625q-0.375 0 -0.640625 0.0625q-0.25 0.0625 -0.421875 0.171875q-0.15625 0.09375 -0.234375 0.234375q-0.0625 0.125 -0.0625 0.28125q0 0.171875 0.0625 0.296875q0.0625 0.125 0.21875 0.25q0.171875 0.109375 0.46875 0.234375q0.296875 0.125 0.78125 0.265625q0.53125 0.15625 0.875 0.328125q0.359375 0.15625 0.578125 0.359375q0.234375 0.203125 0.328125 0.46875q0.09375 0.25 0.09375 0.578125z" fill-rule="nonzero"/><path fill="#000000" fill-opacity="0.0" d="m5.975116 240.23398l0 0c0 -2.1425018 1.7368412 -3.8793488 3.879343 -3.8793488l137.50116 0c1.0288544 0 2.0155792 0.40872192 2.743103 1.1362457c0.7275238 0.72750854 1.1362305 1.7142334 1.1362305 2.743103l0 15.516907c0 2.1424866 -1.7368317 3.8793335 -3.8793335 3.8793335l-137.50116 0c-2.1425018 0 -3.879343 -1.7368469 -3.879343 -3.8793335z" fill-rule="evenodd"/><path stroke="#666666" stroke-width="2.0" stroke-linejoin="round" stroke-linecap="butt" d="m5.975116 240.23398l0 0c0 -2.1425018 1.7368412 -3.8793488 3.879343 -3.8793488l137.50116 0c1.0288544 0 2.0155792 0.40872192 2.743103 1.1362457c0.7275238 0.72750854 1.1362305 1.7142334 1.1362305 2.743103l0 15.516907c0 2.1424866 -1.7368317 3.8793335 -3.8793335 3.8793335l-137.50116 0c-2.1425018 0 -3.879343 -1.7368469 -3.879343 -3.8793335z" fill-rule="evenodd"/><path fill="#000000" d="m71.95855 250.66869q0.203125 0 0.375 0.078125q0.1875 0.078125 0.3125 0.21875q0.140625 0.125 0.203125 0.3125q0.078125 0.171875 0.078125 0.375q0 0.203125 -0.078125 0.375q-0.0625 0.171875 -0.203125 0.3125q-0.125 0.125 -0.3125 0.203125q-0.171875 0.078125 -0.375 0.078125q-0.203125 0 -0.375 -0.078125q-0.171875 -0.078125 -0.3125 -0.203125q-0.125 -0.140625 -0.20311737 -0.3125q-0.078125 -0.171875 -0.078125 -0.375q0 -0.203125 0.078125 -0.375q0.07811737 -0.1875 0.20311737 -0.3125q0.140625 -0.140625 0.3125 -0.21875q0.171875 -0.078125 0.375 -0.078125zm6.5976562 0q0.203125 0 0.375 0.078125q0.1875 0.078125 0.3125 0.21875q0.140625 0.125 0.203125 0.3125q0.078125 0.171875 0.078125 0.375q0 0.203125 -0.078125 0.375q-0.0625 0.171875 -0.203125 0.3125q-0.125 0.125 -0.3125 0.203125q-0.171875 0.078125 -0.375 0.078125q-0.203125 0 -0.375 -0.078125q-0.171875 -0.078125 -0.3125 -0.203125q-0.125 -0.140625 -0.203125 -0.3125q-0.078125 -0.171875 -0.078125 -0.375q0 -0.203125 0.078125 -0.375q0.078125 -0.1875 0.203125 -0.3125q0.140625 -0.140625 0.3125 -0.21875q0.171875 -0.078125 0.375 -0.078125zm6.5976562 0q0.203125 0 0.375 0.078125q0.1875 0.078125 0.3125 0.21875q0.140625 0.125 0.203125 0.3125q0.078125 0.171875 0.078125 0.375q0 0.203125 -0.078125 0.375q-0.0625 0.171875 -0.203125 0.3125q-0.125 0.125 -0.3125 0.203125q-0.171875 0.078125 -0.375 0.078125q-0.203125 0 -0.375 -0.078125q-0.171875 -0.078125 -0.3125 -0.203125q-0.125 -0.140625 -0.203125 -0.3125q-0.078125 -0.171875 -0.078125 -0.375q0 -0.203125 0.078125 -0.375q0.078125 -0.1875 0.203125 -0.3125q0.140625 -0.140625 0.3125 -0.21875q0.171875 -0.078125 0.375 -0.078125z" fill-rule="nonzero"/><path fill="#000000" fill-opacity="0.0" d="m5.9737535 318.7195l229.38582 0l0 42.078735l-229.38582 0z" fill-rule="evenodd"/><path fill="#cccccc" d="m64.81064 345.63953l-3.53125 -13.359375l1.8125 0l2.03125 8.765625q0.328125 1.375 0.5625 2.71875q0.5 -2.140625 0.59375 -2.46875l2.546875 -9.015625l2.125 0l1.921875 6.765625q0.71875 2.515625 1.03125 4.71875q0.265625 -1.265625 0.671875 -2.890625l2.09375 -8.59375l1.78125 0l-3.671875 13.359375l-1.703125 0l-2.8125 -10.171875q-0.359375 -1.28125 -0.421875 -1.5625q-0.203125 0.90625 -0.390625 1.5625l-2.828125 10.171875l-1.8125 0zm14.468033 -4.84375q0 -2.6875 1.484375 -3.96875q1.25 -1.078125 3.046875 -1.078125q2.0 0 3.265625 1.3125q1.265625 1.296875 1.265625 3.609375q0 1.859375 -0.5625 2.9375q-0.5625 1.0625 -1.640625 1.65625q-1.0625 0.59375 -2.328125 0.59375q-2.03125 0 -3.28125 -1.296875q-1.25 -1.3125 -1.25 -3.765625zm1.6875 0q0 1.859375 0.796875 2.796875q0.8125 0.921875 2.046875 0.921875q1.21875 0 2.03125 -0.921875q0.8125 -0.9375 0.8125 -2.84375q0 -1.796875 -0.8125 -2.71875q-0.8125 -0.921875 -2.03125 -0.921875q-1.234375 0 -2.046875 0.921875q-0.796875 0.90625 -0.796875 2.765625zm9.281967 4.84375l0 -9.671875l1.46875 0l0 1.46875q0.5625 -1.03125 1.03125 -1.359375q0.484375 -0.328125 1.0625 -0.328125q0.828125 0 1.6875 0.53125l-0.5625 1.515625q-0.609375 -0.359375 -1.203125 -0.359375q-0.546875 0 -0.96875 0.328125q-0.421875 0.328125 -0.609375 0.890625q-0.28125 0.875 -0.28125 1.921875l0 5.0625l-1.625 0zm12.493927 0l0 -1.21875q-0.90625 1.4375 -2.703125 1.4375q-1.15625 0 -2.125 -0.640625q-0.96875 -0.640625 -1.5 -1.78125q-0.53125 -1.140625 -0.53125 -2.625q0 -1.453125 0.484375 -2.625q0.484375 -1.1875 1.4375 -1.8125q0.96875 -0.625 2.171875 -0.625q0.875 0 1.546875 0.375q0.6875 0.359375 1.109375 0.953125l0 -4.796875l1.640625 0l0 13.359375l-1.53125 0zm-5.171875 -4.828125q0 1.859375 0.78125 2.78125q0.78125 0.921875 1.84375 0.921875q1.078125 0 1.828125 -0.875q0.75 -0.890625 0.75 -2.6875q0 -1.984375 -0.765625 -2.90625q-0.765625 -0.9375 -1.890625 -0.9375q-1.078125 0 -1.8125 0.890625q-0.734375 0.890625 -0.734375 2.8125zm14.699646 4.828125l0 -13.359375l9.65625 0l0 1.578125l-7.875 0l0 4.09375l7.375 0l0 1.5625l-7.375 0l0 4.546875l8.1875 0l0 1.578125l-9.96875 0zm12.209198 0l0 -9.671875l1.46875 0l0 1.375q1.0625 -1.59375 3.078125 -1.59375q0.875 0 1.609375 0.3125q0.734375 0.3125 1.09375 0.828125q0.375 0.5 0.515625 1.203125q0.09375 0.453125 0.09375 1.59375l0 5.953125l-1.640625 0l0 -5.890625q0 -1.0 -0.203125 -1.484375q-0.1875 -0.5 -0.671875 -0.796875q-0.484375 -0.296875 -1.140625 -0.296875q-1.046875 0 -1.8125 0.671875q-0.75 0.65625 -0.75 2.515625l0 5.28125l-1.640625 0zm16.688217 -3.546875l1.609375 0.21875q-0.265625 1.65625 -1.359375 2.609375q-1.078125 0.9375 -2.671875 0.9375q-1.984375 0 -3.1875 -1.296875q-1.203125 -1.296875 -1.203125 -3.71875q0 -1.578125 0.515625 -2.75q0.515625 -1.171875 1.578125 -1.75q1.0625 -0.59375 2.3125 -0.59375q1.578125 0 2.578125 0.796875q1.0 0.796875 1.28125 2.265625l-1.59375 0.234375q-0.234375 -0.96875 -0.8125 -1.453125q-0.578125 -0.5 -1.390625 -0.5q-1.234375 0 -2.015625 0.890625q-0.78125 0.890625 -0.78125 2.8125q0 1.953125 0.75 2.84375q0.75 0.875 1.953125 0.875q0.96875 0 1.609375 -0.59375q0.65625 -0.59375 0.828125 -1.828125zm2.40625 -1.296875q0 -2.6875 1.484375 -3.96875q1.25 -1.078125 3.046875 -1.078125q2.0 0 3.265625 1.3125q1.265625 1.296875 1.265625 3.609375q0 1.859375 -0.5625 2.9375q-0.5625 1.0625 -1.640625 1.65625q-1.0625 0.59375 -2.328125 0.59375q-2.03125 0 -3.28125 -1.296875q-1.25 -1.3125 -1.25 -3.765625zm1.6875 0q0 1.859375 0.796875 2.796875q0.8125 0.921875 2.046875 0.921875q1.21875 0 2.03125 -0.921875q0.8125 -0.9375 0.8125 -2.84375q0 -1.796875 -0.8125 -2.71875q-0.8125 -0.921875 -2.03125 -0.921875q-1.234375 0 -2.046875 0.921875q-0.796875 0.90625 -0.796875 2.765625zm15.563217 4.84375l0 -1.21875q-0.90625 1.4375 -2.703125 1.4375q-1.15625 0 -2.125 -0.640625q-0.96875 -0.640625 -1.5 -1.78125q-0.53125 -1.140625 -0.53125 -2.625q0 -1.453125 0.484375 -2.625q0.484375 -1.1875 1.4375 -1.8125q0.96875 -0.625 2.171875 -0.625q0.875 0 1.546875 0.375q0.6875 0.359375 1.109375 0.953125l0 -4.796875l1.640625 0l0 13.359375l-1.53125 0zm-5.171875 -4.828125q0 1.859375 0.78125 2.78125q0.78125 0.921875 1.84375 0.921875q1.078125 0 1.828125 -0.875q0.75 -0.890625 0.75 -2.6875q0 -1.984375 -0.765625 -2.90625q-0.765625 -0.9375 -1.890625 -0.9375q-1.078125 0 -1.8125 0.890625q-0.734375 0.890625 -0.734375 2.8125zm15.906967 1.71875l1.6875 0.203125q-0.40625 1.484375 -1.484375 2.3125q-1.078125 0.8125 -2.765625 0.8125q-2.125 0 -3.375 -1.296875q-1.234375 -1.3125 -1.234375 -3.671875q0 -2.453125 1.25 -3.796875q1.265625 -1.34375 3.265625 -1.34375q1.9375 0 3.15625 1.328125q1.234375 1.3125 1.234375 3.703125q0 0.15625 0 0.4375l-7.21875 0q0.09375 1.59375 0.90625 2.453125q0.8125 0.84375 2.015625 0.84375q0.90625 0 1.546875 -0.46875q0.640625 -0.484375 1.015625 -1.515625zm-5.390625 -2.65625l5.40625 0q-0.109375 -1.21875 -0.625 -1.828125q-0.78125 -0.953125 -2.03125 -0.953125q-1.125 0 -1.90625 0.765625q-0.765625 0.75 -0.84375 2.015625zm9.125717 5.765625l0 -9.671875l1.46875 0l0 1.46875q0.5625 -1.03125 1.03125 -1.359375q0.484375 -0.328125 1.0625 -0.328125q0.828125 0 1.6875 0.53125l-0.5625 1.515625q-0.609375 -0.359375 -1.203125 -0.359375q-0.546875 0 -0.96875 0.328125q-0.421875 0.328125 -0.609375 0.890625q-0.28125 0.875 -0.28125 1.921875l0 5.0625l-1.625 0z" fill-rule="nonzero"/></g></svg>